<?xml version="1.0" encoding="UTF-8"?>
<svg xmlns:x="&ns_extend;" xmlns:i="&ns_ai;" xmlns:graph="&ns_graphs;" xmlns="http://www.w3.org/2000/svg" xmlns:xlink="http://www.w3.org/1999/xlink" version="1.1" id="Layer_1" x="0px" y="0px" viewBox="0 0 756.2 161.1" style="enable-background:new 0 0 756.2 161.1;" xml:space="preserve">
<style type="text/css">
	.st0{fill:#200142;}
	.st1{fill:url(#SVGID_1_);}
	.st2{fill:url(#SVGID_2_);}
	.st3{fill:url(#SVGID_3_);}
	.st4{fill:url(#SVGID_4_);}
	.st5{fill:url(#SVGID_5_);}
	.st6{fill:url(#SVGID_6_);}
	.st7{fill:url(#SVGID_7_);}
</style>
	<switch>

	<g i:extraneous="self">
		<path class="st0" d="M0,100.3C0,76,21.3,55.6,46.5,55.6c13,0,25.5,5.4,34.5,14.9l-15.8,14c-4.5-5.8-11.4-9.2-18.7-9.3    c-13.2,0-24.5,11.6-24.5,25.2s11.2,25.3,24.5,25.3c7.3-0.1,14.3-3.5,18.8-9.3L81,130.3c-8.9,9.6-21.4,15-34.4,15    C21.3,145.2,0,124.7,0,100.3z"></path>
		<path class="st0" d="M217.2,57.1h21.6l37.7,51.2V57.1H298v86.6h-21.6l-37.7-51.2v51.2h-21.6V57.1z"></path>
		<path class="st0" d="M308.7,100.3c0-24.3,21.3-44.8,46.5-44.8c13,0,25.5,5.4,34.4,14.9l-15.8,14c-4.5-5.8-11.4-9.2-18.7-9.3    c-13.2,0-24.5,11.6-24.5,25.2s11.2,25.3,24.5,25.3c7.3-0.1,14.3-3.5,18.8-9.3l15.6,13.9c-8.9,9.6-21.4,15-34.4,15    C330,145.2,308.7,124.7,308.7,100.3z"></path>
		<path class="st0" d="M398.3,57.1h21.6v86.6h-21.6V57.1z"></path>
		<path class="st0" d="M455.3,76.4v13.5h42.4v19.3h-42.4v15.3h46.7v19.3h-68.2V57.1h68.2v19.3H455.3z"></path>
		<path class="st0" d="M563.9,143.7l-19-27.1h-10.7v27.1h-21.6V57.1h40.2c19,0,32.9,12.2,32.9,29.8c0,12.6-7.2,22.6-18.4,27.1    l20.9,29.8H563.9z M534.2,96.9h16.6c7.4,0,12.7-4,12.7-10.1s-5.3-10.1-12.7-10.1h-16.7L534.2,96.9z"></path>
		<path class="st0" d="M636.6,94h39.5v36.2c-8.8,9.5-22.1,15-35.4,15c-25.6,0-47-20.6-47-44.9s21.4-44.8,47-44.8    c13.4,0,26.6,5.5,35.4,14.9l-15.8,14c-4.9-5.8-12.1-9.3-19.7-9.3c-13.5,0-25,11.6-25,25.2s11.5,25.3,25,25.3    c5.2-0.1,10.2-1.6,14.5-4.5v-10.8h-18.5V94z"></path>
		<path class="st0" d="M709.5,76.4v13.5h42.4v19.3h-42.4v15.3h46.7v19.3h-68.2V57.1h68.2v19.3H709.5z"></path>

		<linearGradient id="SVGID_1_" gradientUnits="userSpaceOnUse" x1="-0.1957" y1="259.9043" x2="160.3343" y2="99.3643" gradientTransform="matrix(1 0 0 1 218.87 -212.53)">
			<stop offset="6.926126e-08" style="stop-color:#9333EA"></stop>
			<stop offset="1" style="stop-color:#38BDF8"></stop>
		</linearGradient>
		<path class="st1" d="M217.2,24.1C217.2,11,228.6,0,241.9,0c6.8,0,13.4,2.8,18.1,7.8l-7.3,6.5c-2.7-3.2-6.6-5.1-10.9-5.2    c-7.8,0-14.4,6.9-14.4,15s6.6,15.1,14.4,15.1c4.2-0.1,8.2-2,10.9-5.2l7.3,6.5c-4.7,5-11.3,7.8-18.1,7.8    C228.6,48.2,217.2,37.1,217.2,24.1z"></path>

		<linearGradient id="SVGID_2_" gradientUnits="userSpaceOnUse" x1="25.9025" y1="286.0025" x2="186.4425" y2="125.4625" gradientTransform="matrix(1 0 0 1 218.87 -212.53)">
			<stop offset="0" style="stop-color:#9333EA"></stop>
			<stop offset="1" style="stop-color:#38BDF8"></stop>
		</linearGradient>
		<path class="st2" d="M314.7,0.8v46.6h-10V28.1h-21.2v19.3h-10V0.8h10v18.3h21.2V0.8H314.7z"></path>

		<linearGradient id="SVGID_3_" gradientUnits="userSpaceOnUse" x1="78.2925" y1="338.3925" x2="238.8325" y2="177.8525" gradientTransform="matrix(1 0 0 1 218.87 -212.53)">
			<stop offset="0" style="stop-color:#9333EA"></stop>
			<stop offset="1" style="stop-color:#38BDF8"></stop>
		</linearGradient>
		<path class="st3" d="M393.9,0.8h10v46.6h-10V0.8z"></path>

		<linearGradient id="SVGID_4_" gradientUnits="userSpaceOnUse" x1="98.99" y1="359.09" x2="259.53" y2="198.55" gradientTransform="matrix(1 0 0 1 218.87 -212.53)">
			<stop offset="0" style="stop-color:#9333EA"></stop>
			<stop offset="1" style="stop-color:#38BDF8"></stop>
		</linearGradient>
		<path class="st4" d="M448.6,47.4L438,32.3h-7.4v15.1h-10V0.8h21c10.1,0,17.6,6.5,17.6,15.7c0.1,6.7-4.2,12.6-10.6,14.6L460,47.4    L448.6,47.4z M430.6,23.1h9.9c5,0,8.3-2.6,8.3-6.6s-3.4-6.6-8.4-6.6h-9.9L430.6,23.1z"></path>

		<linearGradient id="SVGID_5_" gradientUnits="userSpaceOnUse" x1="55.9821" y1="316.0721" x2="216.5121" y2="155.5421" gradientTransform="matrix(1 0 0 1 218.87 -212.53)">
			<stop offset="0" style="stop-color:#9333EA"></stop>
			<stop offset="1" style="stop-color:#38BDF8"></stop>
		</linearGradient>
		<path class="st5" d="M354.3,0c-13.4,0-24.8,11-24.8,24.1c0.1,8.2,4.3,15.7,11.2,20.1c1.7-3,4.4-5.3,7.7-6.6    c-7.5-3.2-11-12-7.8-19.5s12-11,19.5-7.8s11,12,7.8,19.5c-1.5,3.5-4.3,6.3-7.8,7.8c3.2,1.3,5.9,3.6,7.7,6.7    c6.9-4.4,11.1-11.9,11.2-20.1C379,11,367.8,0,354.3,0z"></path>

		<linearGradient id="SVGID_6_" gradientUnits="userSpaceOnUse" x1="-51.6219" y1="284.8485" x2="-135.9419" y2="393.2585" gradientTransform="matrix(1 0 0 1 218.87 -212.53)">
			<stop offset="0" style="stop-color:#9333EA"></stop>
			<stop offset="1" style="stop-color:#38BDF8"></stop>
		</linearGradient>
		<path class="st6" d="M190.7,140.9c-15.9,17.7-40.6,24.5-63.2,17.4c-1.4-0.4-2.9-1-4.3-1.5c-1.6-0.6-3.1-1.3-4.6-2.1    c-2.8-1.4-5.5-3-8.1-4.8c-5.1-3.7-9.7-8.1-13.5-13.1c-2.3-3-4.3-6.3-5.9-9.7c-3.8-7.7-5.9-16.2-6.2-24.8v-2    c0-23.8,13.9-45.3,35.5-55.2c-10.4,10.2-16.8,23.9-17.8,38.5c-0.1,1.4-0.2,2.9-0.2,4.4c0,2.9,0.2,5.7,0.6,8.5    c3.8,26.2,24.3,46.8,50.5,50.7c2.9,0.4,5.9,0.7,8.9,0.7h0.7C172.7,147.8,182.2,145.4,190.7,140.9z"></path>

		<linearGradient id="SVGID_7_" gradientUnits="userSpaceOnUse" x1="-48.0696" y1="287.6025" x2="-132.3996" y2="396.0125" gradientTransform="matrix(1 0 0 1 218.87 -212.53)">
			<stop offset="0" style="stop-color:#9333EA"></stop>
			<stop offset="1" style="stop-color:#38BDF8"></stop>
		</linearGradient>
		<path class="st7" d="M189.9,109.7c-1.2,5.4-3.1,10.6-5.7,15.5c5.2,0.4,10.4,1.3,15.5,2.6c-1.8,3.5-3.9,6.9-6.4,10    c-5.5-1-11.1-1.5-16.6-1.6c-2.2,2.6-4.7,5-7.3,7.2c-3.4,0-6.8-0.3-10.1-0.9c1.8-1.8,3.6-3.6,5.2-5.6c-5.1,0.6-10.2,1.6-15.1,3    c-4.6-1.7-9-3.9-13.1-6.6c11.3-5,23.4-7.8,35.8-8.2c2.4-5,4.1-10.3,5.1-15.8c-18.1,0.3-35.7,5.7-50.9,15.5    c-2.8-2.9-5.2-6.1-7.4-9.4c16.6-12,36.6-18.4,57.1-18.4h2.2c-0.1-4.1-0.7-8.2-1.6-12.2c-1.5-0.1-3.1-0.1-4.6-0.1    c-21.1-0.1-41.7,6.7-58.5,19.4c-1.6-4.3-2.7-8.7-3.3-13.2c16.8-12.5,37.2-19.2,58.2-19.2c1.2,0,2.4,0,3.5,0.1    c-1.8-3.6-3.9-7-6.4-10.1h-1c-19.5,0-38.6,5.8-54.7,16.7c0.3-4.3,1.1-8.6,2.4-12.8c13.3-8,28.2-12.7,43.7-13.7    c-3.6-3-7.6-5.5-11.8-7.5c-8.7,1.1-17.2,3.4-25.3,6.8c1.6-2.6,3.4-5.1,5.4-7.4c3.4-1.3,7-2.3,10.6-3c3.6-0.7,7.3-1,10.9-1    c1.9,0,3.9,0.1,5.8,0.3c5.9,0.5,11.6,2,17.1,4.2c-3-0.4-6.1-0.6-9.2-0.7c4.4,2.3,8.4,5.2,12.1,8.5c4.6,0.4,9.1,1.2,13.5,2.3    c4.3,3.7,8.1,7.9,11.3,12.7c-5-1.7-10.1-3-15.2-3.9c2.2,3.3,4.1,6.7,5.6,10.4c5.2,1,10.3,2.4,15.3,4.2c1.7,4.2,2.9,8.5,3.6,12.9    c-4.9-1.8-9.9-3.2-15.1-4.2c0.6,3.5,0.9,7,0.9,10.5v1.2c5.1,0.8,10.1,2,15,3.6c-0.1,3.7-0.5,7.3-1.3,10.9    C200,111.2,195,110.3,189.9,109.7z"></path>
	</g>
</switch>

</svg>
