<svg xmlns="http://www.w3.org/2000/svg" viewBox="0 0 756.2 161.1" xmlns:v="https://vecta.io/nano"><path d="M0 100.3C0 76 21.3 55.6 46.5 55.6c13 0 25.5 5.4 34.5 14.9l-15.8 14c-4.5-5.8-11.4-9.2-18.7-9.3-13.2 0-24.5 11.6-24.5 25.2s11.2 25.3 24.5 25.3c7.3-.1 14.3-3.5 18.8-9.3L81 130.3c-8.9 9.6-21.4 15-34.4 15-25.3-.1-46.6-20.6-46.6-45zm217.2-43.2h21.6l37.7 51.2V57.1H298v86.6h-21.6l-37.7-51.2v51.2h-21.6V57.1zm91.5 43.2c0-24.3 21.3-44.8 46.5-44.8 13 0 25.5 5.4 34.4 14.9l-15.8 14c-4.5-5.8-11.4-9.2-18.7-9.3-13.2 0-24.5 11.6-24.5 25.2s11.2 25.3 24.5 25.3c7.3-.1 14.3-3.5 18.8-9.3l15.6 13.9c-8.9 9.6-21.4 15-34.4 15-25.1 0-46.4-20.5-46.4-44.9zm89.6-43.2h21.6v86.6h-21.6V57.1zm57 19.3v13.5h42.4v19.3h-42.4v15.3H502v19.3h-68.2V57.1H502v19.3h-46.7zm108.6 67.3l-19-27.1h-10.7v27.1h-21.6V57.1h40.2c19 0 32.9 12.2 32.9 29.8 0 12.6-7.2 22.6-18.4 27.1l20.9 29.8h-24.3zm-29.7-46.8h16.6c7.4 0 12.7-4 12.7-10.1s-5.3-10.1-12.7-10.1h-16.7l.1 20.2zM636.6 94h39.5v36.2c-8.8 9.5-22.1 15-35.4 15-25.6 0-47-20.6-47-44.9s21.4-44.8 47-44.8c13.4 0 26.6 5.5 35.4 14.9l-15.8 14c-4.9-5.8-12.1-9.3-19.7-9.3-13.5 0-25 11.6-25 25.2s11.5 25.3 25 25.3c5.2-.1 10.2-1.6 14.5-4.5v-10.8h-18.5V94zm72.9-17.6v13.5h42.4v19.3h-42.4v15.3h46.7v19.3H688V57.1h68.2v19.3h-46.7z" fill="#200142"/><linearGradient id="A" gradientUnits="userSpaceOnUse" x1="218.674" y1="47.374" x2="379.204" y2="-113.166"><stop offset="0" stop-color="#9333ea"/><stop offset="1" stop-color="#38bdf8"/></linearGradient><path d="M217.2 24.1C217.2 11 228.6 0 241.9 0c6.8 0 13.4 2.8 18.1 7.8l-7.3 6.5c-2.7-3.2-6.6-5.1-10.9-5.2-7.8 0-14.4 6.9-14.4 15s6.6 15.1 14.4 15.1c4.2-.1 8.2-2 10.9-5.2l7.3 6.5c-4.7 5-11.3 7.8-18.1 7.8-13.3-.1-24.7-11.2-24.7-24.2z" fill="url(#A)"/><linearGradient id="B" gradientUnits="userSpaceOnUse" x1="244.773" y1="73.473" x2="405.313" y2="-87.067"><stop offset="0" stop-color="#9333ea"/><stop offset="1" stop-color="#38bdf8"/></linearGradient><path d="M314.7.8v46.6h-10V28.1h-21.2v19.3h-10V.8h10v18.3h21.2V.8h10z" fill="url(#B)"/><linearGradient id="C" gradientUnits="userSpaceOnUse" x1="297.163" y1="125.862" x2="457.703" y2="-34.678"><stop offset="0" stop-color="#9333ea"/><stop offset="1" stop-color="#38bdf8"/></linearGradient><path d="M393.9.8h10v46.6h-10V.8z" fill="url(#C)"/><linearGradient id="D" gradientUnits="userSpaceOnUse" x1="317.86" y1="146.56" x2="478.4" y2="-13.98"><stop offset="0" stop-color="#9333ea"/><stop offset="1" stop-color="#38bdf8"/></linearGradient><path d="M448.6 47.4L438 32.3h-7.4v15.1h-10V.8h21c10.1 0 17.6 6.5 17.6 15.7.1 6.7-4.2 12.6-10.6 14.6L460 47.4h-11.4zm-18-24.3h9.9c5 0 8.3-2.6 8.3-6.6s-3.4-6.6-8.4-6.6h-9.9l.1 13.2z" fill="url(#D)"/><linearGradient id="E" gradientUnits="userSpaceOnUse" x1="274.852" y1="103.542" x2="435.382" y2="-56.988"><stop offset="0" stop-color="#9333ea"/><stop offset="1" stop-color="#38bdf8"/></linearGradient><path d="M354.3 0c-13.4 0-24.8 11-24.8 24.1.1 8.2 4.3 15.7 11.2 20.1 1.7-3 4.4-5.3 7.7-6.6-7.5-3.2-11-12-7.8-19.5s12-11 19.5-7.8 11 12 7.8 19.5a14.87 14.87 0 0 1-7.8 7.8c3.2 1.3 5.9 3.6 7.7 6.7 6.9-4.4 11.1-11.9 11.2-20.1C379 11 367.8 0 354.3 0z" fill="url(#E)"/><linearGradient id="F" gradientUnits="userSpaceOnUse" x1="167.248" y1="72.319" x2="82.928" y2="180.729"><stop offset="0" stop-color="#9333ea"/><stop offset="1" stop-color="#38bdf8"/></linearGradient><path d="M190.7 140.9c-15.9 17.7-40.6 24.5-63.2 17.4-1.4-.4-2.9-1-4.3-1.5-1.6-.6-3.1-1.3-4.6-2.1-2.8-1.4-5.5-3-8.1-4.8-5.1-3.7-9.7-8.1-13.5-13.1-2.3-3-4.3-6.3-5.9-9.7-3.8-7.7-5.9-16.2-6.2-24.8v-2c0-23.8 13.9-45.3 35.5-55.2C110 55.3 103.6 69 102.6 83.6c-.1 1.4-.2 2.9-.2 4.4a59.68 59.68 0 0 0 .6 8.5c3.8 26.2 24.3 46.8 50.5 50.7 2.9.4 5.9.7 8.9.7h.7a60.44 60.44 0 0 0 27.6-7z" fill="url(#F)"/><linearGradient id="G" gradientUnits="userSpaceOnUse" x1="170.8" y1="75.073" x2="86.47" y2="183.483"><stop offset="0" stop-color="#9333ea"/><stop offset="1" stop-color="#38bdf8"/></linearGradient><path d="M189.9 109.7c-1.2 5.4-3.1 10.6-5.7 15.5 5.2.4 10.4 1.3 15.5 2.6-1.8 3.5-3.9 6.9-6.4 10-5.5-1-11.1-1.5-16.6-1.6-2.2 2.6-4.7 5-7.3 7.2-3.4 0-6.8-.3-10.1-.9 1.8-1.8 3.6-3.6 5.2-5.6-5.1.6-10.2 1.6-15.1 3-4.6-1.7-9-3.9-13.1-6.6 11.3-5 23.4-7.8 35.8-8.2 2.4-5 4.1-10.3 5.1-15.8-18.1.3-35.7 5.7-50.9 15.5-2.8-2.9-5.2-6.1-7.4-9.4 16.6-12 36.6-18.4 57.1-18.4h2.2c-.1-4.1-.7-8.2-1.6-12.2-1.5-.1-3.1-.1-4.6-.1-21.1-.1-41.7 6.7-58.5 19.4a60.77 60.77 0 0 1-3.3-13.2c16.8-12.5 37.2-19.2 58.2-19.2 1.2 0 2.4 0 3.5.1-1.8-3.6-3.9-7-6.4-10.1h-1c-19.5 0-38.6 5.8-54.7 16.7.3-4.3 1.1-8.6 2.4-12.8 13.3-8 28.2-12.7 43.7-13.7-3.6-3-7.6-5.5-11.8-7.5-8.7 1.1-17.2 3.4-25.3 6.8 1.6-2.6 3.4-5.1 5.4-7.4 3.4-1.3 7-2.3 10.6-3s7.3-1 10.9-1a56.33 56.33 0 0 1 5.8.3c5.9.5 11.6 2 17.1 4.2-3-.4-6.1-.6-9.2-.7 4.4 2.3 8.4 5.2 12.1 8.5 4.6.4 9.1 1.2 13.5 2.3 4.3 3.7 8.1 7.9 11.3 12.7-5-1.7-10.1-3-15.2-3.9 2.2 3.3 4.1 6.7 5.6 10.4 5.2 1 10.3 2.4 15.3 4.2 1.7 4.2 2.9 8.5 3.6 12.9-4.9-1.8-9.9-3.2-15.1-4.2.6 3.5.9 7 .9 10.5v1.2a96.35 96.35 0 0 1 15 3.6c-.1 3.7-.5 7.3-1.3 10.9-5.1-1.5-10.1-2.4-15.2-3z" fill="url(#G)"/></svg>