<svg xmlns="http://www.w3.org/2000/svg" width="1044.391" height="705.187" viewBox="0 0 1044.391 705.187"><g transform="translate(-13.998 -92.631)"><g transform="translate(102.36 787.93)"><rect width="129.678" height="9.888" rx="1.753" fill="#adbec4"/><rect width="41.116" height="9.888" rx="1.753" transform="translate(861.126)" fill="#adbec4"/><rect width="129.678" height="9.888" rx="1.753" transform="translate(229.444)" fill="#adbec4"/><rect width="129.678" height="9.888" rx="1.753" transform="translate(408.466)" fill="#adbec4"/><rect width="173.96" height="9.888" rx="1.753" transform="translate(583.437)" fill="#adbec4"/></g><g transform="translate(13.998 239.481)"><path d="M168.4,163.564s-12.878-8.76-31.71-2.011-23.065,32.113-18.425,52.7-21.293,90.861-21.293,90.861,13.477,18.954,60.581,11.7c0,0,35.122-63.827,32.513-109.649S168.4,163.564,168.4,163.564Z" transform="translate(86.626 -158.999)" fill="#0e3944"/><path d="M135.976,197.5c17.7-5.66,28.535,9.079,38.678,36.511S188.206,264.2,188.206,264.2l39.149,25.154L224.1,304.01s-37.259-14.588-46.267-23.868-34.923-56.279-34.923-56.279Z" transform="translate(133.921 -113.76)" fill="#ef6e4b"/><path d="M108.812,276.941s-7.68,38.9-6.415,97.446c0,0-30.265,44.63-5.288,171.965h13.1s10.7-108.339,18.892-137.695,38.428-38.363,40.065-127.623Z" transform="translate(74.809 -15.973)" fill="#ff8b66"/><path d="M118.528,396.889c-7.612-25.09-27.178-67.11-77.375-124.069,0,0-2.994-1.542-7.041.929-4.273,2.611-4.273,5.678-4.273,5.678s25.171,54.854,41.222,95.043a35.585,35.585,0,0,0,33.044,22.419Z" transform="translate(5.213 -21.548)" fill="#ff8b66"/><path d="M195.832,476.119s.17,18.721-12.112,19.04c-17.343.467-17.982-18.425-37.635-17.81S85.9,482.874,73,452.166c-6.658-15.869,2.456-36.235-19.04-51.589s-11.055-32.551,0-41.762c11.057-9.189-4.764-19.261,6.758-23.952a11.269,11.269,0,0,1,7.959-.148,18.475,18.475,0,0,1,4.175,2.113c6.094,4.054,10.369,11.1,10.369,11.1,32.548-89.151,90.5-100.918,90.5-100.918l57.315,19.775C232.409,405.49,195.832,476.119,195.832,476.119Z" transform="translate(19.298 -52.265)" fill="#164353"/><path d="M181.6,201.263s-13.371,4.512-32.391,1.622-25.2-14.827-38.571-7.143C90.568,207.281,99.961,247,105,267.65c1.881,7.7,4.262,27.926-.272,44.621,0,0,26.725,20.795,57.313,19.761l16.688-36.294S215.02,252.314,181.6,201.263Z" transform="translate(88.296 -117.519)" fill="#cfd8dc"/><path d="M123.218,183.4s2.224,18.788-4.726,35.881c0,0,9.922,14.65,19.392,5.01,0,0,.867-17.219,11.5-36.7C156.512,174.544,123.218,183.4,123.218,183.4Z" transform="translate(112.719 -132.969)" fill="#ef6e4b"/><g transform="translate(213.23 7.293)"><path d="M117.865,183s-8.371-5.3-7.426,2.874c1.1,9.466,10.327,11.311,11.311,8S117.865,183,117.865,183Z" transform="translate(-110.365 -139.228)" fill="#ff8b66"/><path d="M135.622,179.579s5.315-8.359,7.943-.566c3.047,9.028-4.518,14.635-6.819,12.061S135.622,179.579,135.622,179.579Z" transform="translate(-80.102 -146.05)" fill="#ff8b66"/><path d="M146.053,230.821c-15.183,3.4-25.972-4.6-32.63-34.341-3.436-15.343,2.264-26.5,19.268-30.309s26.273,4,29.71,19.341C169.556,217.472,161.736,227.31,146.053,230.821Z" transform="translate(-107.817 -158.752)" fill="#ff8b66"/><path d="M137.573,180.577c.606,1.467-.387,3.273-2.219,4.034s-3.815.186-4.423-1.281.387-3.27,2.222-4.031S136.964,179.112,137.573,180.577Z" transform="translate(-85.642 -142.082)" fill="#db614d"/><path d="M123.714,184.509c.246,1.569-1.146,3.089-3.107,3.394s-3.75-.715-4-2.283,1.146-3.089,3.107-3.394S123.468,182.941,123.714,184.509Z" transform="translate(-102.825 -138.191)" fill="#db614d"/><g transform="translate(33.643 21.894)"><path d="M133.286,174.932a.769.769,0,0,1-.429-.131c-2.6-1.733-6.275-.812-6.315-.8a.778.778,0,0,1-.387-1.507c.179-.044,4.4-1.1,7.565,1.016a.778.778,0,0,1-.434,1.425Z" transform="translate(-125.57 -172.189)" fill="#0e3944"/></g><g transform="translate(11.996 25.704)"><path d="M116.564,179.245a.785.785,0,0,1-.4-.113.775.775,0,0,1-.263-1.066c1.963-3.264,6.229-4.111,6.41-4.144a.79.79,0,0,1,.907.617.778.778,0,0,1-.617.909c-.035.009-3.768.759-5.37,3.419A.773.773,0,0,1,116.564,179.245Z" transform="translate(-115.787 -173.911)" fill="#0e3944"/></g><path d="M131.519,178.847c.42,1.885-.086,3.6-1.133,3.837s-2.239-1.1-2.662-2.987.084-3.6,1.133-3.839S131.1,176.96,131.519,178.847Z" transform="translate(-89.495 -145.88)" fill="#1a4850"/><path d="M121.986,180.9c.423,1.885-.086,3.6-1.133,3.839s-2.239-1.1-2.662-2.989.086-3.6,1.133-3.839S121.563,179.013,121.986,180.9Z" transform="translate(-101.055 -143.393)" fill="#1a4850"/><path d="M122.907,189.739s9.751-.794,14.048-4.423c0,0-1.182,7.618-6.488,8.147A7.754,7.754,0,0,1,122.907,189.739Z" transform="translate(-95.157 -134.378)" fill="#1a4850"/><path d="M126.981,180.564s.343-4.954,2.241-5.029,4.173,3.593,4.173,3.593l2.374-2.031-2.615.956s-2.332-3.835-4.138-3.438C126.448,175.176,126.981,180.564,126.981,180.564Z" transform="translate(-90.272 -147.391)" fill="#1a4850"/><path d="M125.518,181.537s-2.423-4.335-4.171-3.593-2.241,5.029-2.241,5.029l-3.016-.825,2.775-.252s.473-4.463,2.277-4.875C123.706,176.434,125.518,181.537,125.518,181.537Z" transform="translate(-103.423 -144.494)" fill="#1a4850"/><g transform="translate(29.341 39.553)"><path d="M126.954,187.183l-.781-1.482a1.937,1.937,0,0,0,1.239-2.2,2.077,2.077,0,0,0-1.447-1.653c-.3-.016-.564.243-.768.783l-1.571-.584a2.415,2.415,0,0,1,2.467-1.872,3.683,3.683,0,0,1,2.961,2.983A3.62,3.62,0,0,1,126.954,187.183Z" transform="translate(-123.626 -180.171)" fill="#db614d"/></g><path d="M118.8,211.425s-4.682-17.228-1.9-29.411c0,0,13.207-18.392,38.7-9.3a102.836,102.836,0,0,1,11.307,29.212s.951-6.12-1.584-19.75-14.63-22.1-31.212-19.372S99.783,182.028,118.8,211.425Z" transform="translate(-110.101 -162.295)" fill="#0e3944"/></g><path d="M146.781,171.489s1.011,4.5-3.363,16.077a4.777,4.777,0,0,0-6.831,0c-3.684,3.288-11.167,2.188-13.721,3.967s-2.553,5.839-2.553,5.839a16.1,16.1,0,0,1,0-11.125s-4.972,6.319-4.312,14.123c0,0-6.742-1.089-6.437-12.212s16.119-29.119,33.854-27.953,21.959,29.252,21.959,29.252a5.17,5.17,0,0,0-4.149-.706,36.788,36.788,0,0,0-4.379-13.44,19.907,19.907,0,0,1,0,11.243s-4.941-2.591-8.835-1.781C148.013,184.774,150.418,180.068,146.781,171.489Z" transform="translate(101.88 -157.599)" fill="#0e3944"/><path d="M110.387,197.268c8.634-6.8,15.354,1.852,17,13.823s-13.962,82.6-26,80c-4.647-1-6.543-19.5-6.543-19.5s4.709-19.859,7.755-49.748C104,208.1,105.886,200.817,110.387,197.268Z" transform="translate(84.045 -115.496)" fill="#ff8b66"/><path d="M111.208,272.255c-11.621-11.077-32.455-47.818-37.75-66.537l8.82-3.547s26.559,37.992,38.664,47.57,16.363,20.25,10.955,29.387S113.656,274.585,111.208,272.255Z" transform="translate(58.108 -106.645)" fill="#ff8b66"/><g transform="translate(104.676 70.465)"><path d="M91.817,194.946c-.608,12.015,9.185,14.862,4.839,24.085a6.292,6.292,0,0,1-3.68,3.419,7.447,7.447,0,0,1-7.687-1.976A84.916,84.916,0,0,0,69.609,208.6c-4.355-2.514-1.887-3.2-1.887-3.2-.423-.2-.832-.365-1.244-.531-3.107-1.3-5.591-1.792-3.337-3.175,2.534-1.575,11.524,1.708,11.524,1.708-11.7-7.791-14.876-5.892-12.738-7.547,2.914-2.266,14.037,2.945,14.369,3.1-6.18-5.844-10.663-7.167-8.209-8.05,2.483-.892,14.714,7.963,19.177,11.289,1,.746,1.622,1.224,1.622,1.224C88.731,193.6,91.817,194.946,91.817,194.946Z" transform="translate(-61.305 -190.845)" fill="#ff8b66"/><path d="M73.488,195.975c1,.746,1.622,1.224,1.622,1.224s-2.093,3.523.617,8.085A7.271,7.271,0,0,1,73.488,195.975Z" transform="translate(-47.53 -184.623)" fill="#ef6e4b"/><path d="M74.171,201.667c-1.036-.569-6.937-3.892-9.284-3.7-.423-.2-.832-.365-1.244-.531C65.221,195.36,73,200.815,74.171,201.667Z" transform="translate(-58.471 -183.416)" fill="#ef6e4b"/></g><g transform="translate(80.723 210.382)"><path d="M91.954,280.962a2.362,2.362,0,1,1-2.361-2.361A2.36,2.36,0,0,1,91.954,280.962Z" transform="translate(-5.914 -224.342)" fill="#6097b2"/><path d="M110.994,288.307a2.362,2.362,0,1,1-2.361-2.361A2.362,2.362,0,0,1,110.994,288.307Z" transform="translate(17.175 -215.435)" fill="#6097b2"/><path d="M127.217,292.246a2.361,2.361,0,1,1-2.361-2.361A2.362,2.362,0,0,1,127.217,292.246Z" transform="translate(36.85 -210.658)" fill="#6097b2"/><path d="M102.29,267.026a2.362,2.362,0,1,1-2.361-2.361A2.362,2.362,0,0,1,102.29,267.026Z" transform="translate(6.62 -241.242)" fill="#6097b2"/><circle cx="2.362" cy="2.362" r="2.362" transform="translate(112.139 45.862)" fill="#6097b2"/><path d="M122.767,282.948a2.362,2.362,0,1,1-2.361-2.361A2.362,2.362,0,0,1,122.767,282.948Z" transform="translate(31.452 -221.933)" fill="#6097b2"/><path d="M125.084,265.454a2.362,2.362,0,1,1-2.363-2.361A2.363,2.363,0,0,1,125.084,265.454Z" transform="translate(34.261 -243.148)" fill="#6097b2"/><circle cx="2.362" cy="2.362" r="2.362" transform="translate(130.144 11.889)" fill="#6097b2"/><path d="M82.51,301.781a2.362,2.362,0,1,1-2.361-2.361A2.362,2.362,0,0,1,82.51,301.781Z" transform="translate(-17.367 -199.095)" fill="#6097b2"/><path d="M67.3,297.243a2.362,2.362,0,1,1-2.363-2.361A2.363,2.363,0,0,1,67.3,297.243Z" transform="translate(-35.812 -204.598)" fill="#6097b2"/><path d="M58.027,288.763a2.374,2.374,0,0,1-4.348-1.3,1.764,1.764,0,0,1,.173-.81A18.476,18.476,0,0,1,58.027,288.763Z" transform="translate(-46.601 -214.581)" fill="#6097b2"/><circle cx="2.362" cy="2.362" r="2.362" transform="translate(72.478 131.123)" fill="#6097b2"/><path d="M60.661,330.829a2.362,2.362,0,1,1-2.361-2.363A2.362,2.362,0,0,1,60.661,330.829Z" transform="translate(-43.863 -163.872)" fill="#6097b2"/><circle cx="2.362" cy="2.362" r="2.362" transform="translate(36.751 144.305)" fill="#6097b2"/><circle cx="2.362" cy="2.362" r="2.362" transform="translate(0 126.354)" fill="#6097b2"/><path d="M68.611,345.492a2.362,2.362,0,1,1-2.361-2.361A2.362,2.362,0,0,1,68.611,345.492Z" transform="translate(-34.222 -146.088)" fill="#6097b2"/><path d="M78.773,289.376a2.362,2.362,0,1,1-2.363-2.363A2.362,2.362,0,0,1,78.773,289.376Z" transform="translate(-21.899 -214.141)" fill="#6097b2"/><path d="M89.027,271.4a2.362,2.362,0,1,1-2.361-2.361A2.362,2.362,0,0,1,89.027,271.4Z" transform="translate(-9.464 -235.937)" fill="#6097b2"/><path d="M100.632,256.442a2.362,2.362,0,1,1-2.363-2.363A2.362,2.362,0,0,1,100.632,256.442Z" transform="translate(4.609 -254.079)" fill="#6097b2"/><path d="M77.113,278.235a2.361,2.361,0,1,1-2.361-2.361A2.36,2.36,0,0,1,77.113,278.235Z" transform="translate(-23.909 -227.649)" fill="#6097b2"/><path d="M90.1,260.746a2.362,2.362,0,1,1-2.363-2.361A2.363,2.363,0,0,1,90.1,260.746Z" transform="translate(-8.169 -248.857)" fill="#6097b2"/><path d="M69.679,308.8a2.362,2.362,0,1,1-2.363-2.361A2.363,2.363,0,0,1,69.679,308.8Z" transform="translate(-32.927 -190.579)" fill="#6097b2"/><path d="M56.27,299.378a2.361,2.361,0,1,1-2.361-2.361A2.36,2.36,0,0,1,56.27,299.378Z" transform="translate(-49.185 -202.009)" fill="#6097b2"/><circle cx="2.362" cy="2.362" r="2.362" transform="translate(88.402 87.922)" fill="#6097b2"/><circle cx="2.362" cy="2.362" r="2.362" transform="translate(137.229 100.325)" fill="#6097b2"/><path d="M116.156,271.4a2.362,2.362,0,1,1-2.361-2.361A2.362,2.362,0,0,1,116.156,271.4Z" transform="translate(23.435 -235.937)" fill="#6097b2"/><path d="M128.985,273.638a2.362,2.362,0,1,1-2.361-2.361A2.36,2.36,0,0,1,128.985,273.638Z" transform="translate(38.992 -233.223)" fill="#6097b2"/><path d="M103.356,309.873a2.361,2.361,0,1,1-2.361-2.363A2.362,2.362,0,0,1,103.356,309.873Z" transform="translate(7.915 -189.285)" fill="#6097b2"/><circle cx="2.362" cy="2.362" r="2.362" transform="translate(86.04 160.235)" fill="#6097b2"/><circle cx="2.362" cy="2.362" r="2.362" transform="translate(49.788 166.956)" fill="#6097b2"/><circle cx="2.362" cy="2.362" r="2.362" transform="translate(149.495 131.123)" fill="#6097b2"/><path d="M108.019,323.794a2.362,2.362,0,1,1-2.361-2.363A2.362,2.362,0,0,1,108.019,323.794Z" transform="translate(13.567 -172.403)" fill="#6097b2"/><path d="M85.825,347.627a2.362,2.362,0,1,1-2.361-2.361A2.362,2.362,0,0,1,85.825,347.627Z" transform="translate(-13.347 -143.499)" fill="#6097b2"/><circle cx="2.362" cy="2.362" r="2.362" transform="translate(104.186 189.468)" fill="#6097b2"/><circle cx="2.362" cy="2.362" r="2.362" transform="translate(139.282 175.555)" fill="#6097b2"/><path d="M110.994,354.143a2.362,2.362,0,1,1-2.361-2.361A2.362,2.362,0,0,1,110.994,354.143Z" transform="translate(17.175 -135.597)" fill="#6097b2"/></g><g transform="translate(166.759 516.414)"><path d="M128.914,429.269H90.124c-2.531-7.222,2.137-14.471,1.352-20.832-1.352-10.76,4.912-4.815,4.912-4.815,1.106-11.572,17.369-13.758,17.2-8.6-.27,7.589,1.2,12.282,3.365,15.427,4.372,6.313,11.546,6.264,12.774,10.785.124.443.221.885.294,1.277C131.222,428.163,128.914,429.269,128.914,429.269Z" transform="translate(-89.363 -392.388)" fill="#164353"/><path d="M122.714,412.612c-8.032,1.868-26.554-.564-27.291-5.231-.712-4.521,9.26-6.634,14.223-6.831,4.372,6.313,11.546,6.264,12.774,10.785C122.544,411.778,122.641,412.221,122.714,412.612Z" transform="translate(-82.059 -382.488)" fill="#205260"/></g><g transform="translate(0 232.693)"><path d="M60.847,284.293c-4.127-3.757-10.833,2.458-10.833,2.458s3.611,5.355,1.277,7.516-5.036-2.777-9.63-.615a9.021,9.021,0,0,0-1.131.639c-3.587,2.137-7.32,6.634-10.342,10.048-.613.688-1.2,1.328-1.744,1.892-3.514,3.684-12.579,5.846-14.274-3.981s9.36-21.348,21.5-31.935,19.974-4.3,19.974-4.3,2.75,4.447,2.75,7.222c0,2.753,2.456,4.127,3.832,6.755C63.6,282.6,60.847,284.293,60.847,284.293Z" transform="translate(-13.998 -264.162)" fill="#164353"/><path d="M36.778,284.215c-3.587,2.137-7.32,6.634-10.342,10.048-4.545,1.082-8.623.761-9.26-3.514-1.549-10.318,19.038-23.434,17.392-16.188C33.733,278.2,35.158,281.66,36.778,284.215Z" transform="translate(-10.246 -254.086)" fill="#205260"/></g></g><g transform="translate(621.04 92.631)"><path d="M371.186,424.458c-1.912-1-3.675-3.213-5.26-6.005a60.143,60.143,0,0,1,0-16.936c1.365-8.678-2.414-15.765-14.7-18.425-11.942-2.589-19.027,3.166-16.27,27.172l0,.009c-1.817,9.975-2.193,21.361,1.949,30.96h36.759S379.468,428.806,371.186,424.458Z" transform="translate(-233.392 258.913)" fill="#cfd8dc"/><path d="M399.622,344.122a111.514,111.514,0,0,1-13.513,48.517c-13.758,25.016-30.767,59.348-30.767,59.348s-11.333,11.057-18.536-7.255c0,0,5.085-63.763,16.752-87.1S399.622,344.122,399.622,344.122Z" transform="translate(-229.58 209.854)" fill="#ff8b66"/><path d="M463.134,307.745s21.892,92.069,35.819,116.356c0,0-3.2,10.161-18.283,13.232,0,0-47.63-70.013-50.7-99.493S463.134,307.745,463.134,307.745Z" transform="translate(-116.828 168.232)" fill="#ff8b66"/><g transform="translate(113.218 324.181)"><path d="M583.189,412.58c-5.824,14.028-50.8,14.789-50.8,14.789l-3.441-5.06-.909-1.328-7.025-10.366s-74.534-73.109-89.053-66.969h-.024a7.061,7.061,0,0,0-1.228.712c-9.973,7.125-10.906,46.161-22.7,111.68a115.186,115.186,0,0,1-5.527,18.474c-.221.54-.416,1.056-.613,1.547-1.082,2.777-1.843,4.545-1.843,4.545-45.5,18.425-60.508-17.982-60.508-17.982s.542-1.055,1.328-2.75c.173-.37.369-.788.564-1.23,2.383-5.257,6.191-14.371,6.142-19.186q-.073-7.922-.122-15.254c0-.443,0-.861-.027-1.279-.073-15.745-.049-29.429.051-41.319V380.35c.049-5.184.122-10.023.221-14.544V364.53c.392-20.711,1.056-34.542,1.768-43.753.024-.418.073-.861.1-1.252,1.255-15.5,2.58-17.024,2.58-17.024L343,239.142h99.444s14.936,14.962,34.319,34.712c.418.394.812.786,1.2,1.2,7.027,7.149,14.617,14.911,22.233,22.8.321.321.615.615.885.909q4.494,4.643,8.966,9.262c.369.367.712.761,1.082,1.128,9.975,10.344,19.653,20.538,27.933,29.455.294.3.564.591.834.885,11.324,12.258,19.947,22.06,22.921,26.63,7.886,12.064,14.026,27.76,17.416,37.465v.024c.173.443.321.834.467,1.252C582.3,409.584,583.189,412.58,583.189,412.58Z" transform="translate(-339.514 -239.142)" fill="#8b383e"/><g transform="translate(1.328 22.406)"><path d="M361.564,283.02c-4.054,4.79-9.948,7.74-17.564,8.8.024-.418.073-.861.1-1.252,7.174-1.033,12.725-3.832,16.533-8.353,6.83-8.059,5.724-18.941,5.7-19.04l1.228-.146C367.607,263.491,368.738,274.545,361.564,283.02Z" transform="translate(-335.402 -232.587)" fill="#662c33"/><path d="M415.43,262.779c-.392.024-.761.049-1.153.049-11.054,0-22.6-12.086-23.191-12.7l.885-.859c.146.17,11.643,12.21,22.255,12.307C414.644,261.969,415.038,262.36,415.43,262.779Z" transform="translate(-278.302 -249.268)" fill="#662c33"/><path d="M401.75,354.214c-.221.54-.416,1.056-.613,1.547a58.586,58.586,0,0,1-20.292,3.808c-19.653,0-33.263-11.373-40.731-20,.173-.37.369-.788.564-1.23C350.235,349.546,370.651,366.079,401.75,354.214Z" transform="translate(-340.114 -141.249)" fill="#662c33"/><path d="M391.134,299.93a103.3,103.3,0,0,1,2.75,22.821,7.065,7.065,0,0,0-1.228.712c-.049-37.093-21.52-66.033-21.766-66.354l.982-.737a127.767,127.767,0,0,1,18.94,42.28,11.259,11.259,0,0,0,4.914-7.052c3.1-13.019-10.981-34.294-11.1-34.516l1.007-.688c.589.909,14.493,21.939,11.3,35.476A12.483,12.483,0,0,1,391.134,299.93Z" transform="translate(-302.793 -240.652)" fill="#662c33"/><path d="M454.663,307.317c-3.66,3.981-7.1,7.37-7.419,7.665l-.664.664-.319-.885c-4.815-12.6-35.768-39.919-36.089-40.191l-.367-.343,5.158-8.55c.321.321.615.615.885.909l-4.324,7.173c6.018,2.089,10.293,2.456,13.289,2.089.369.367.712.761,1.082,1.128a19.1,19.1,0,0,1-3.219.272,33.365,33.365,0,0,1-9.506-1.646c7.025,6.337,28.864,26.581,33.876,37.857,1.94-1.916,4.4-4.447,6.782-7.027C454.123,306.729,454.393,307.023,454.663,307.317Z" transform="translate(-255.602 -229.369)" fill="#662c33"/><path d="M365.729,355.26l-.491.1a62.759,62.759,0,0,1-12.455,1.279,36.552,36.552,0,0,1-9.678-1.155c0-.443,0-.861-.027-1.279,8.107,2.334,18.94.542,21.4.075l-2.064-51.124A16.593,16.593,0,0,1,354.7,311.9a14.933,14.933,0,0,1-6.831,1.522,22,22,0,0,1-4.739-.54v-1.252c4.248.982,7.935.713,11.006-.836,5.206-2.58,7.271-8.107,7.91-10.293-4.1.615-12.382-1.474-18.695-3.414V295.81c6.8,2.062,16.015,4.445,19.332,3.29l.788-.27Z" transform="translate(-336.52 -192.828)" fill="#662c33"/><path d="M477.385,314.726a62.327,62.327,0,0,1-44.318,17.834,71.446,71.446,0,0,1-7.443-.392l-.909-1.328c27.393,3.144,44.565-9.7,52.2-17.367C477.091,313.917,477.239,314.308,477.385,314.726Z" transform="translate(-237.521 -171.407)" fill="#662c33"/></g></g><path d="M452.82,120.855s-2.735-6.291-14.278-6.3c-8.9,0-12.3,4.914-12.3,4.914-5.324,15.56-11.043,75.131-13.092,77.251-1.038,1.075-67.033,45.524-67.033,45.524,35.814.67,58.16,44.818,58.16,44.818,1.157-14.506,41.6-71.994,42.039-77.118C447.131,200.279,464.242,157.092,452.82,120.855Z" transform="translate(-218.292 -66.038)" fill="#ce364c"/><path d="M342.563,276.8s-.332,12.429,3.689,13.247a113.082,113.082,0,0,0,74.443-6.622c37.669-17.124,44.22-29.818,33.166-39.233S342.563,276.8,342.563,276.8Z" transform="translate(-222.607 89.501)" fill="#ce364c"/><path d="M365.543,181.3s-34.272-4.06-53.925,4.445c0,0-5.481,24.322,21.518,78.751s20.737,88.711,51.188,101.615c26.995,11.44,106.584-22.6,109.085-33.9C499.7,303.791,451.031,253.9,447.96,225S416.638,152.635,365.543,181.3Z" transform="translate(-260.68 3.511)" fill="#f24052"/><path d="M339.284,178.19c-23.952,8.506-50.9,35.4-50.938,48.36s22.474,17.96,22.474,17.96l36.91-17.96s10.559-7.37,3.837-28.855S339.284,178.19,339.284,178.19Z" transform="translate(-288.346 11.066)" fill="#ce364c"/><g transform="translate(122.413 186.637)"><path d="M370.61,203.567c-7.156,0-16.033-2.578-21.547-6.507-3.04-2.166-4.855-4.611-5.244-7.067-1.354-8.508,6.93-12.831,7.284-13.013l1.117,2.186c-.29.15-7.045,3.711-5.974,10.442.283,1.792,1.75,3.675,4.242,5.45,6.176,4.4,16.856,6.985,23.811,5.76,3.133-.553,5.184-1.679,6.094-3.348a5.579,5.579,0,0,0,.153-4.377l2.257-.971a8,8,0,0,1-.237,6.492c-1.279,2.374-3.916,3.93-7.84,4.622A23.728,23.728,0,0,1,370.61,203.567Z" transform="translate(-343.669 -176.98)" fill="#cfd8dc"/></g><g transform="translate(90.76 193.261)"><path d="M357.584,225.858c-5.3,0-14.1-2.21-15.334-10.911a43.263,43.263,0,0,1,.133-11.378c.527-4.8.94-8.587-1.854-13.128-4.616-7.494-10.9-8-11.165-8.017l.148-2.452c.314.018,7.791.547,13.108,9.18,3.237,5.26,2.735,9.838,2.206,14.683a40.45,40.45,0,0,0-.142,10.765c1.332,9.386,13.3,8.8,13.8,8.773l.146,2.452C358.3,225.847,357.952,225.858,357.584,225.858Z" transform="translate(-329.364 -179.974)" fill="#cfd8dc"/></g><path d="M382.106,199.963s18.117-12.34,13.818-25.7-62.645-12.437-77.691,3.531,32.551,26.568,32.551,26.568C354.467,196.939,378.01,196.12,382.106,199.963Z" transform="translate(-255.669 -4.907)" fill="#ce364c"/><path d="M337.466,191.876c-8.6-2.919-13.692-9.123-11.849-16.287s38.8-7.357,45.809-1.631S368.56,202.433,337.466,191.876Z" transform="translate(-243.604 1.088)" fill="#a02e44"/><path d="M328.917,172.64s7.6,12.993,4.091,20.138c0,0,26.094,9.01,26.094-5.591,0,0-4.919-10.942-3.064-18.016Z" transform="translate(-239.147 0.187)" fill="#ef6e4b"/><g transform="translate(67.271 93.377)"><path d="M331.4,202.934s-12.82-20.531-11.632-40.145c.6-9.8,5.638-13.648,5.638-13.648s-4.071-5.658.292-14.309c0,0,6.038,6.988,27.231,4.784,20.436-2.126,22.474,12.444,22.474,12.444,14.606,2.171,4.753,46.358-5.441,50.874Z" transform="translate(-317.604 -134.832)" fill="#ffb878"/><path d="M327.109,158.647s-7.368-7.353-8.275,1.243c-1.051,9.959,7.992,13.969,9.762,10.8S327.109,158.647,327.109,158.647Z" transform="translate(-318.749 -109.503)" fill="#ff8b66"/><path d="M346.949,158.881s7.368-7.353,8.275,1.244c1.051,9.959-7.994,13.971-9.762,10.8S346.949,158.881,346.949,158.881Z" transform="translate(-286.992 -109.22)" fill="#ff8b66"/><path d="M347.852,211.361c-16.349,0-25.576-10.681-25.576-42.711,0-16.52,8.406-26.654,26.718-26.654s26.028,10.132,26.028,26.654C375.022,203.068,364.744,211.361,347.852,211.361Z" transform="translate(-314.471 -126.144)" fill="#ff8b66"/><path d="M347.766,160.518c.285,1.644-1.148,3.268-3.2,3.624s-3.952-.681-4.239-2.325,1.148-3.266,3.2-3.624S347.479,158.876,347.766,160.518Z" transform="translate(-292.63 -106.589)" fill="#db614d"/><path d="M332.6,161.4c-.108,1.664-1.883,2.9-3.965,2.768s-3.682-1.6-3.573-3.259,1.885-2.905,3.967-2.768S332.711,159.738,332.6,161.4Z" transform="translate(-311.097 -106.576)" fill="#db614d"/><g transform="translate(39.778 33.55)"><path d="M344.884,153.2a.809.809,0,0,1-.622-.159c-2.6-2-6.51-1.292-6.569-1.283a.828.828,0,0,1-.951-.653.814.814,0,0,1,.653-.954c.17-.038,4.686-.847,7.862,1.6a.816.816,0,0,1-.372,1.454Z" transform="translate(-336.726 -149.994)" fill="#ffb878"/></g><g transform="translate(15.928 33.49)"><path d="M326.663,153.348a.8.8,0,0,1-.531-.292.82.82,0,0,1,.113-1.151c3.1-2.538,7.632-1.865,7.808-1.834a.818.818,0,0,1,.682.932.834.834,0,0,1-.934.684c-.029-.011-4.007-.577-6.519,1.485A.828.828,0,0,1,326.663,153.348Z" transform="translate(-325.947 -149.967)" fill="#ffb878"/></g><path d="M341.888,157.63c0,2.029-.914,3.675-2.042,3.675s-2.042-1.646-2.042-3.675.914-3.677,2.042-3.677S341.888,155.6,341.888,157.63Z" transform="translate(-295.642 -111.644)" fill="#1a4850"/><path d="M332.02,157.63c0,2.029-.914,3.675-2.042,3.675s-2.042-1.646-2.042-3.675.914-3.677,2.042-3.677S332.02,155.6,332.02,157.63Z" transform="translate(-307.609 -111.644)" fill="#1a4850"/><path d="M329.353,147.735s17.423,6.379,42.4,4.585c0,0,5.326,6.638,4.68,30.064,0,0,14.626-42.2-28.074-42.2s-23.463,41.26-23.463,41.26S321.409,155.641,329.353,147.735Z" transform="translate(-316.532 -128.337)" fill="#ffb878"/><g transform="translate(33.193 37.306)"><path d="M334.974,171.29l-1.224-1.232,3.233-3.213c-3.135-4.434-3.118-14.694-3.115-15.152l1.737.011c0,.108-.018,11.147,3.184,14.617l.569.615Z" transform="translate(-333.75 -151.692)" fill="#db614d"/></g><path d="M329.4,163.772s16.091.679,24.215-1.471c0,0,1.436,11.7-11.035,12.285C329.4,175.2,329.4,163.772,329.4,163.772Z" transform="translate(-305.833 -101.521)" fill="#1a4850"/></g><path d="M361.676,182.976c3.071-.571,2.764,7.466,0,5.136S358.6,183.547,361.676,182.976Z" transform="translate(-202.076 16.892)" fill="#cfd8dc"/><path d="M346.812,202.082c-.469,3.087-7.959.164-4.852-1.684S347.279,198.993,346.812,202.082Z" transform="translate(-224.243 36.727)" fill="#cfd8dc"/><path d="M332.374,208.137s-4.877,12.5-4.6,19.569,2.589,6.142,2.589,6.142a7.629,7.629,0,0,0-4.4,5.527c-.7,4.071,9.581,7.063,10.287,7.063s7.963-2.764,7.963-2.764l1.52-23.107-6.421-4.034Z" transform="translate(-242.767 47.44)" fill="#ef6e4b"/><path d="M332.723,207.4s8.877,5.53,12.316,8.906,1.476,29.479,0,30.707-12.794,3.762-14.964,2.341.845-9.1.845-9.1,5.684-1.228,4.866.92a5.632,5.632,0,0,0,0,3.994l2.334-.923s-1.146-5.835,0-10.132-8-8.835-9.112-16.7S332.723,207.4,332.723,207.4Z" transform="translate(-239.237 46.552)" fill="#ff8b66"/><path d="M289.239,209.893c-2.843-12.274,9.337-16.615,26.284-14.522,19.653,2.425,60.014,7.567,68.788,28.858,0,0,2.865,8.4-4.551,12.431C359.029,247.936,294.576,232.947,289.239,209.893Z" transform="translate(-287.763 31.348)" fill="#ce364c"/><path d="M337.548,203.893s-23.423-9.731-35.091-10.716S318.592,202.388,337.548,203.893Z" transform="translate(-274.593 29.217)" fill="#a02e44"/><g transform="translate(197.063)"><path d="M418.877,114.868c-1.77,2.014-4.693,9.851-4.693,9.851-1.228,6.583-1.941,10.218-4.251,13.241-2.283,3.023-1.08,8.353-1.08,8.353s-8.944,4.594-16.46-1.082c0,0,.786-5.282,0-6.78-1.547-3-6.51-4.593-8.2-10.636-1.695-6.069-6.782-12.825-6.782-12.825s1.451-3.144,4.1-1.228c2.677,1.941,4.372,6.78,5.822,7.271a3.721,3.721,0,0,0,.885.2.188.188,0,0,1,.073.024,3.572,3.572,0,0,0,2.923-.761.461.461,0,0,0,.173-.146c2.432-2.826,3-11.13,2.9-14.84-.148-5.158.049-12.283,3.193-11.079s.27,4.078,2.7,15.453l1.177.146c.221.812,2.383-6.9,2.9-14.15.367-4.985,3.635-3.144,4.348-1.571.737,1.571-.369,6.534-.591,10.145-.17,2.383-.367,4.863-.491,6.339l1.376.761c4.963-8.647,3.268-12.234,6.167-12.406,2.874-.173,1.841,7.125.294,9.9a27.332,27.332,0,0,0-1.819,6.167c5.087-5.872,4.521-8.941,6.855-8.574C422.807,107.031,420.645,112.853,418.877,114.868Z" transform="translate(-377.407 -92.631)" fill="#ff8b66"/><path d="M390.949,113.133c-1.719-4.742-7.862-6.9-8.623-7.149a3.572,3.572,0,0,0,2.923-.761C391.267,107.925,390.949,113.133,390.949,113.133Z" transform="translate(-371.442 -77.361)" fill="#ef6e4b"/></g><g transform="translate(108.226 653.057)"><path d="M338.884,398.829s-3.4-6.937-.367-9.917,6.6,2.547,11.774,1.319,6.377-4.908,7.722.1S357.718,411.112,338.884,398.829Z" transform="translate(-337.258 -387.775)" fill="#cfd8dc"/><path d="M358.371,392.632s-13.9,4.925-21.113,0l1.832,6.018s15.113,1.6,17.2-2.208Z" transform="translate(-337.258 -381.885)" fill="#adbec4"/><path d="M357.058,396.28s-12.729-1.766-18.872,1.4v2.983s16.6-3.872,21.963,0Z" transform="translate(-336.133 -378.057)" fill="#adbec4"/><path d="M337.91,404.342a11.6,11.6,0,0,1,10.214-6.448,20.2,20.2,0,0,1,12.971,3.832S348.812,396.666,337.91,404.342Z" transform="translate(-336.467 -375.542)" fill="#adbec4"/></g><g transform="translate(359.09 585.831)"><path d="M528.892,369.829c-24.444,32.626-57.707,38.89-57.707,38.89-9.656-7.716-9.9-16.854-9.9-16.854s-9.311-8.3-10.539-12.283,7.986-15.969,13.513-14.739c3.808.834,6.018,3.881,7.025,5.673-4.569-10.293-.909-13.88,5.576-13,6.758.909.37,2.5,5.209,7.935a6.385,6.385,0,0,0,1.155,1.007,7.977,7.977,0,0,0,3.144,1.255,14.448,14.448,0,0,0,3.465.17,17.975,17.975,0,0,0,1.965-.2,26.315,26.315,0,0,0,3.857-.934,34.547,34.547,0,0,0,6.215-2.677c8.45-4.618,12.013-6.191,18.449-4.545,6.412,1.622,6.313,6.488,6.313,6.488Z" transform="translate(-450.634 -357.393)" fill="#cfd8dc"/><path d="M517.629,363.047c-24.443,32.626-57.707,38.89-57.707,38.89,16.976-7.3,32.575-16.854,43.236-28.621C513.8,361.549,517.629,363.047,517.629,363.047Z" transform="translate(-439.37 -350.611)" fill="#adbec4"/><g transform="translate(26.055 9.071)"><path d="M468.943,361.492a7.977,7.977,0,0,0,3.144,1.255,8.267,8.267,0,0,0-6.928,7.074l-2.75-.885C463,362.008,468.476,361.516,468.943,361.492Z" transform="translate(-462.409 -361.492)" fill="#adbec4"/><path d="M469.113,369.821l-2.874.1c-1.08-4.078.319-6.51,1.671-7.859a14.447,14.447,0,0,0,3.465.17A8.2,8.2,0,0,0,469.113,369.821Z" transform="translate(-458.231 -360.804)" fill="#adbec4"/><path d="M472.491,368.774l-2.85.37a7.935,7.935,0,0,1-.024-6.585,26.334,26.334,0,0,0,3.857-.934A8.353,8.353,0,0,0,472.491,368.774Z" transform="translate(-454.508 -361.331)" fill="#adbec4"/></g></g><path d="M354.168,228.167s6.308,34.044-6.448,47.61-4.319,2.418-.513-15.073S348.114,224.789,354.168,228.167Z" transform="translate(-224.576 71.24)" fill="#ce364c"/><path d="M373.522,221.392S393.631,228,404.15,246.57C404.15,246.57,390.1,216.332,373.522,221.392Z" transform="translate(-185.055 62.821)" fill="#ce364c"/></g><g transform="translate(277.696 93.1)"><path d="M142.686,123.652c2.682.042,10.45,3.135,10.45,3.135,5.7,3.509,8.877,5.423,12.668,5.74,3.773.336,5.321,6.819,5.321,6.819s14.88,3.255,15.721-6.127c0,0-8.32-11.774-8.9-13.362-1.184-3.16.965-7.908-2.376-13.223C172.21,101.3,170.616,93,170.616,93s-3.3-1.036-3.664,2.217c-.358,3.288,2.089,7.793,1.48,9.2a3.747,3.747,0,0,1-.447.788.176.176,0,0,0-.033.071,3.576,3.576,0,0,1-2.527,1.655.455.455,0,0,1-.223.029c-3.726-.093-10.26-5.248-12.944-7.813-3.724-3.571-9.136-8.209-10.355-5.071s2.841,2.938,9.638,12.378l-.682.974c.451.708-6.718-2.87-12.435-7.353-3.943-3.073-4.77.584-4.085,2.168.673,1.6,5.091,4.113,7.917,6.375,1.881,1.471,3.852,2.992,5.027,3.89l-.361,1.531c-9.74-2.129-11.26-5.793-13.334-3.759-2.058,2.016,4.043,6.149,7.14,6.866a27.381,27.381,0,0,1,5.791,2.792c-7.766-.173-9.663-2.653-10.957-.677C134.24,121.3,140.006,123.61,142.686,123.652Z" transform="translate(-133.174 -92.843)" fill="#ff8b66"/><path d="M150.1,109.652c-2.361-4.459.162-10.462.489-11.192a3.576,3.576,0,0,1-2.527,1.655C146.025,106.39,150.1,109.652,150.1,109.652Z" transform="translate(-115.812 -86.032)" fill="#ef6e4b"/><g transform="translate(403.142)"><path d="M359.532,123.652c-2.682.042-10.453,3.135-10.453,3.135-5.7,3.509-8.877,5.423-12.665,5.74-3.775.336-5.321,6.819-5.321,6.819s-14.88,3.255-15.721-6.127c0,0,8.32-11.774,8.9-13.362,1.182-3.16-.965-7.908,2.376-13.223C330.008,101.3,331.6,93,331.6,93s3.3-1.036,3.664,2.217c.358,3.288-2.089,7.793-1.48,9.2a3.748,3.748,0,0,0,.447.788.161.161,0,0,1,.031.071,3.58,3.58,0,0,0,2.527,1.655.464.464,0,0,0,.226.029c3.726-.093,10.26-5.248,12.944-7.813,3.724-3.571,9.136-8.209,10.355-5.071s-2.841,2.938-9.638,12.378l.682.974c-.451.708,6.715-2.87,12.433-7.353,3.945-3.073,4.773.584,4.085,2.168-.671,1.6-5.089,4.113-7.915,6.375-1.881,1.471-3.852,2.992-5.027,3.89l.358,1.531c9.74-2.129,11.262-5.793,13.336-3.759,2.056,2.016-4.045,6.149-7.14,6.866a27.33,27.33,0,0,0-5.791,2.792c7.766-.173,9.663-2.653,10.955-.677C367.977,121.3,362.211,123.61,359.532,123.652Z" transform="translate(-315.371 -92.843)" fill="#ff8b66"/><path d="M324.4,109.652c2.359-4.459-.162-10.462-.491-11.192a3.58,3.58,0,0,0,2.527,1.655C328.474,106.39,324.4,109.652,324.4,109.652Z" transform="translate(-305.017 -86.032)" fill="#ef6e4b"/></g><path d="M377.829,407.616,349.243,230.622,292,237.014l-57.237-6.392L206.181,407.616l-13.73,171.661s4.366,14.223,32.92,4.4c0,0,21.182-159.22,24.459-162.724s36.914-107.5,36.914-107.5h10.521s33.637,104,36.914,107.5,24.459,162.724,24.459,162.724c28.555,9.826,32.918-4.4,32.918-4.4Z" transform="translate(-61.291 74.237)" fill="#0e3944"/><path d="M231.923,153.159c3.615,3.518,21.4,9.866,30.8,0l6.37,6.257s-7.262,17.077-20.007,17.675S227.126,161.9,227.126,161.9Z" transform="translate(-19.242 -19.7)" fill="#0c476b"/><path d="M252.061,207.127c21.29-9.165,90.076-33.531,90.076-33.531s46.241-57.932,55.671-66.531c0,0,10.236,1.843,13.23,14.586,0,0-29.774,63.756-45.959,82.008s-98.159,57.729-98.159,57.729Z" transform="translate(10.996 -75.596)" fill="#0c476b"/><path d="M233.111,152.231c6.333-4,38.133,17.27,38.133,17.27s41.342-21.954,51.044-17.7c0,0,8.742,11.7,12.256,41.78s3.746,153.86,3.746,153.86-27.8,9.833-65.391,9.833c-42.859,0-65.918-12.291-65.918-12.291S199.332,173.594,233.111,152.231Z" transform="translate(-44.572 -22.013)" fill="#ffb878"/><path d="M230.053,150.241s4.578,14.4,0,19.952c0,0,4.755,9.977,13.3,10.419,9.873.509,13.3-10.419,13.3-10.419s-5.222-13.911,0-18.8Z" transform="translate(-15.692 -23.238)" fill="#ef6e4b"/><g transform="translate(193.344 52.195)"><path d="M229.266,177.063s-9.636-18.547-7.727-38.366,31.77-24.366,51.9-14.628c0,0-5.974-5.841-3.638-7.466s6.37,8.764,6.37,8.764,6.357-1.947,7.331,0-6.514,3.014-6.514,3.014,12.988,7.2.854,45.532Z" transform="translate(-219.664 -116.432)" fill="#8b383e"/><path d="M228.707,140.091s-7.185-7.169-8.07,1.213c-1.024,9.709,7.8,13.621,9.519,10.532S228.707,140.091,228.707,140.091Z" transform="translate(-220.555 -91.205)" fill="#ff8b66"/><path d="M248.052,140.321s7.187-7.171,8.07,1.21c1.025,9.711-7.8,13.623-9.519,10.535S248.052,140.321,248.052,140.321Z" transform="translate(-189.589 -90.928)" fill="#ff8b66"/><path d="M248.934,191.491c-15.942,0-24.939-10.413-24.939-41.645,0-16.11,8.2-25.992,26.052-25.992s25.379,9.882,25.379,25.992C275.426,183.406,265.4,191.491,248.934,191.491Z" transform="translate(-216.383 -107.432)" fill="#ff8b66"/><path d="M248.848,141.918c.281,1.6-1.117,3.184-3.122,3.534s-3.854-.666-4.133-2.27,1.117-3.184,3.122-3.534S248.569,140.314,248.848,141.918Z" transform="translate(-195.086 -88.363)" fill="#db614d"/><path d="M234.064,142.778c-.106,1.622-1.839,2.832-3.868,2.7s-3.589-1.555-3.483-3.18,1.837-2.832,3.866-2.7S234.171,141.154,234.064,142.778Z" transform="translate(-213.092 -88.351)" fill="#db614d"/><g transform="translate(38.939 33.288)"><path d="M245.685,135.536a.789.789,0,0,1-.575-.246c-2.21-2.317-6.078-2.217-6.136-2.217a.81.81,0,0,1-.821-.772.792.792,0,0,1,.77-.821c.168-.011,4.642-.117,7.337,2.711a.794.794,0,0,1-.575,1.345Z" transform="translate(-238.153 -131.477)" fill="#8b383e"/></g><g transform="translate(15.658 33.289)"><path d="M228.427,135.535a.788.788,0,0,1-.549-.219.8.8,0,0,1-.029-1.126c2.693-2.828,7.162-2.719,7.337-2.711a.8.8,0,0,1,.77.821.814.814,0,0,1-.821.772c-.029-.007-3.947-.08-6.131,2.217A.8.8,0,0,1,228.427,135.535Z" transform="translate(-227.631 -131.477)" fill="#8b383e"/></g><path d="M243.117,139.1c0,1.98-.889,3.587-1.989,3.587s-1.994-1.606-1.994-3.587.892-3.585,1.994-3.585S243.117,137.118,243.117,139.1Z" transform="translate(-198.024 -93.292)" fill="#1a4850"/><path d="M233.5,139.1c0,1.98-.892,3.587-1.991,3.587s-1.991-1.606-1.991-3.587.889-3.585,1.991-3.585S233.5,137.118,233.5,139.1Z" transform="translate(-209.691 -93.292)" fill="#1a4850"/><path d="M231.313,147.617s14.057,1.81,21.288-1.66c0,0-4.087,9.572-11.767,8.711S231.313,147.617,231.313,147.617Z" transform="translate(-207.508 -80.628)" fill="#1a4850"/><path d="M276.088,162.814s-.5-17.338-7.249-30.665c0,0-11.9,5.5-14.517,4.2s2.5-4.2,2.5-4.2-19.635,6.472-20.815,5.173,6.508-5.173,6.508-5.173l-12.232,4.2s-3.77,15.6-2.21,26.466c0,0-5.257-9.07-5.906-15.334s2.1-24.116,20.527-25.415,28.771,2.883,33.336,11.342S280.025,152.273,276.088,162.814Z" transform="translate(-218.707 -109.883)" fill="#8b383e"/><g transform="translate(31.73 40.489)"><path d="M238.5,156.223a14.764,14.764,0,0,1-3.6-.533l.454-1.631c1.673.46,4.295.737,4.868.062.2-.237.119-.781-.219-1.494-2.3-4.9-2.784-17.308-2.8-17.832l1.695-.064c0,.126.485,12.586,2.642,17.173.659,1.4.653,2.514-.02,3.308A3.885,3.885,0,0,1,238.5,156.223Z" transform="translate(-234.895 -134.731)" fill="#db614d"/></g></g><path d="M244.494,163.046s28.853,89.569,31.6,162.448c0,0,10.413,2.865,22.14-13.1s4.751-142.45-17.715-163.51C280.521,148.883,270.329,146.559,244.494,163.046Z" transform="translate(1.82 -25.022)" fill="#105e99"/><path d="M250.751,175.391s5.164-12,2.87-20.228-10.408,0-10.408,0S246.491,168.636,250.751,175.391Z" transform="translate(0.265 -21.704)" fill="#0c476b"/><path d="M307.215,208.053c-21.288-9.165-90.076-33.531-90.076-33.531S170.784,114.9,161.354,106.3c0,0-11.67,6.6-12.462,20.266,0,0,29.123,59.764,45.307,78.017s98.161,57.729,98.161,57.729Z" transform="translate(-114.114 -76.521)" fill="#0c476b"/><path d="M260.545,163.046s-28.853,89.569-31.6,162.448c0,0-10.415,2.865-22.14-13.1s-4.751-142.45,17.712-163.51C224.516,148.883,234.707,146.559,260.545,163.046Z" transform="translate(-50.698 -25.022)" fill="#105e99"/><path d="M227.782,175.391s-5.164-12-2.87-20.228,10.408,0,10.408,0S232.044,168.636,227.782,175.391Z" transform="translate(-22.639 -21.704)" fill="#0c476b"/><g transform="translate(297.11 649.609)"><path d="M326.058,436.5H268.77c-4-22.773,2.383-45.57,2.383-45.57l26.189-4.5c2.381,14.4,5.257,20.071,9.236,22.994h.024c2.9,2.113,6.364,2.8,10.687,4.3a13.742,13.742,0,0,1,8.844,8.229C328.713,428.682,326.058,436.5,326.058,436.5Z" transform="translate(-267.451 -386.429)" fill="#662c33"/><path d="M317.727,409.349c-14.126,1.768-45.154,4.79-43.262-3.39,1.573-6.83,14.666-8.671,23.707-9.138h.024c2.9,2.113,6.364,2.8,10.687,4.3A13.742,13.742,0,0,1,317.727,409.349Z" transform="translate(-259.045 -373.827)" fill="#8b383e"/></g><g transform="translate(105.364 649.609)"><path d="M239.283,436.5H181.994a26.6,26.6,0,0,1-.982-11.03,13.875,13.875,0,0,1,9.753-11.743c4.963-1.721,8.771-2.359,11.891-5.284,3.39-3.193,5.919-9.087,8.056-22.01l26.189,4.5S243.263,413.722,239.283,436.5Z" transform="translate(-180.793 -386.429)" fill="#662c33"/><path d="M180.892,413.4a13.875,13.875,0,0,1,9.753-11.743c4.963-1.721,8.771-2.359,11.891-5.284,7.247,2.237,17.392,6.339,20.536,12.555C227.447,417.454,193.962,416.1,180.892,413.4Z" transform="translate(-180.673 -374.367)" fill="#8b383e"/></g></g><g transform="translate(538.028 250.471)"><g transform="translate(244.971 496.735)"><path d="M431.385,429.929a31.366,31.366,0,0,1-.248,4.1h-69.6c0-1.376.024-2.752.1-4.1a127.845,127.845,0,0,1,6.536-34l17.392-7.468c1.5,8.966,5.357,14.69,10.2,18.423a24.718,24.718,0,0,0,3.978,2.556c.639.345,1.279.664,1.941.958a33.553,33.553,0,0,0,4.447,1.646c6.142,1.868,12.358,2.259,16.706,2.923C430.254,416.122,431.385,424.7,431.385,429.929Z" transform="translate(-361.542 -388.461)" fill="#164353"/><path d="M431.385,407.2a31.366,31.366,0,0,1-.248,4.1h-69.6c0-1.376.024-2.753.1-4.1Z" transform="translate(-361.542 -365.734)" fill="#225866"/><path d="M385.214,399.343l-9.654,3.1-2.038-3.538,7.713-2.113A24.716,24.716,0,0,0,385.214,399.343Z" transform="translate(-347.014 -378.364)" fill="#225866"/><path d="M387.456,400.021l-6.51,4.324-4.005-1.573,6.067-4.4A33.557,33.557,0,0,0,387.456,400.021Z" transform="translate(-342.868 -376.439)" fill="#225866"/></g><g transform="translate(0 488.873)"><path d="M299.736,434.237a17.413,17.413,0,0,1-.785,4.1H252.595a20.875,20.875,0,0,1-1.3-4.1c-4.569-22.184,26.238-49.329,26.238-49.329l9.778,13.044s-1.131,20.881,7.147,25.229C299.417,425.785,300.056,430.7,299.736,434.237Z" transform="translate(-250.829 -384.908)" fill="#164353"/><path d="M251.038,407.2h48.444a17.412,17.412,0,0,1-.785,4.1H252.341A20.876,20.876,0,0,1,251.038,407.2Z" transform="translate(-250.576 -357.873)" fill="#225866"/><path d="M285.172,404.17s-19.531-4.454-28.435,1.312v-3.224S273.164,394.274,285.172,404.17Z" transform="translate(-243.665 -367.559)" fill="#225866"/><path d="M281.3,401.924s-12.471-5.7-24.565,0l1.381-3.253S272.564,393.208,281.3,401.924Z" transform="translate(-243.665 -370.267)" fill="#225866"/></g><path d="M538.676,390.693c.024,18.646-16.533,170.664-16.533,170.664a96.709,96.709,0,0,1-29.825-1.671c-4.545-77.041-4.987-143.295-4.987-143.295l-79.349-59.477-.2-.146s-.294,1.35-.834,3.757c-3.932,17.443-20.562,90.5-27.49,107.233-7.886,19.064-94.107,99.23-94.107,99.23-16.018-2.21-29.608-13.811-29.608-13.811C286.7,501.832,328.9,450.34,328.9,450.34c3.292-18.5,5.651-59.647,7.052-90.4.024-.467.049-.958.073-1.425.934-20.832,1.4-36.556,1.4-36.556l-14.544-29.822,92.395-33.951,20.708,26.508s4.742,4.4,12.21,11.422l1.031.958C476.965,323.236,538.676,382.341,538.676,390.693Z" transform="translate(-244.866 -49.711)" fill="#8bbddb"/><g transform="translate(91.089 236.796)"><path d="M292,320.205c.024-.467.049-.958.073-1.425,19.456-10.563,16.188-27.417,16.139-27.588l1.2-.246C309.461,291.117,312.95,309.224,292,320.205Z" transform="translate(-291.996 -246.775)" fill="#6097b2"/><path d="M330.77,319.5a104.775,104.775,0,0,1,1.425,11.915l-.2-.146s-.294,1.35-.834,3.757c-.861-28.889-12.774-45.964-12.922-46.159l1.007-.712c.124.146,7.64,11.006,11.276,29.946,14.053-12.482.294-38.054.148-38.3l1.08-.591C331.9,279.481,346.469,306.553,330.77,319.5Z" transform="translate(-260.168 -261.007)" fill="#6097b2"/><path d="M354.578,281.547c-.024.024-.073.024-.1.051a5.31,5.31,0,0,1-1.916.319c-6.8,0-18.228-9.532-18.768-10l.81-.934c3.711,3.144,14.053,10.687,18.94,9.605Z" transform="translate(-241.305 -270.984)" fill="#6097b2"/></g><path d="M289.013,202.282s28.1-4.523,42.187,4.456,32.57,32.407,32.57,32.407-21.952,2.9-24.437,17.808C339.334,256.953,323.389,218.979,289.013,202.282Z" transform="translate(-204.524 -118.882)" fill="#adbec4"/><path d="M287.832,216.4c-11.889,6.428-31.763,30.557-32.659,45.4-.876,14.473,9.844,27.785,17.073,39.1,22.554,35.312,46.3,66.513,56.39,107.93.064.263,51.588,20.708,112.059-51.978,0,0-34.168-45.973-45.973-85.113-4.806-15.931-9.694-32.856-18.923-46.9-10.167-15.467-27.577-24.565-45.687-23.1C314.787,202.986,299.543,210.069,287.832,216.4Z" transform="translate(-245.623 -118.342)" fill="#cfd8dc"/><path d="M267.65,203.492s7.6,12.993,4.091,20.138c0,0,26.092,9.008,26.092-5.591,0,0-4.917-10.942-3.065-18.018Z" transform="translate(-230.431 -120.244)" fill="#ef6e4b"/><path d="M307.609,241.8s-14.513,4.124-18.177,9.262-6.921,16.661-6.921,16.661h25.1l4.72-8.683,5.525-11.572Z" transform="translate(-212.409 -69.581)" fill="#ef6e4b"/><g transform="translate(9.916)"><path d="M315.83,229.742s10.192-4.273,3.6-34.923c-4.368-20.308-10.658-23.335-14.725-23.514,0,0-4.974-7.494-22.226-3.908-11.818,2.458-21.244,9.636-25.395,22.912-4.332,13.86,4.332,43.572,15.743,46.528Z" transform="translate(-254.54 -160.983)" fill="#164353"/><path d="M284.479,187.879s6.423-8.939,8.848-.128c2.81,10.207-5.937,15.949-8.324,12.949S284.479,187.879,284.479,187.879Z" transform="translate(-220.779 -139.831)" fill="#ff8b66"/><path d="M264.442,191.134s-8.952-6.4-8.419,2.722c.617,10.568,10.745,13.2,12.044,9.588S264.442,191.134,264.442,191.134Z" transform="translate(-254.475 -133.666)" fill="#ff8b66"/><path d="M295.026,244.517c17.053-2.812,24.842-15.54,19.33-48.953C311.512,178.329,301,169.207,281.9,172.357s-25.406,15.051-22.563,32.285C265.259,240.543,277.406,247.425,295.026,244.517Z" transform="translate(-251.218 -154.536)" fill="#ff8b66"/><path d="M262.42,193.3c-.016,1.763,1.759,3.211,3.965,3.23s4.007-1.394,4.023-3.158-1.759-3.208-3.965-3.228S262.438,191.541,262.42,193.3Z" transform="translate(-246.689 -132.214)" fill="#db614d"/><path d="M278.381,191.654c.4,1.717,2.465,2.7,4.613,2.2s3.565-2.3,3.164-4.014-2.465-2.706-4.613-2.206S277.981,189.935,278.381,191.654Z" transform="translate(-227.415 -135.416)" fill="#db614d"/><g transform="translate(19.668 36.926)"><path d="M265.064,186.208a.864.864,0,0,1-.715-1.35c2.383-3.5,7.169-4.169,7.375-4.2a.857.857,0,0,1,.969.743.869.869,0,0,1-.741.971c-.044,0-4.233.6-6.173,3.454A.861.861,0,0,1,265.064,186.208Z" transform="translate(-264.199 -180.654)" fill="#1a4850"/></g><g transform="translate(44.141 33.836)"><path d="M283.762,182.6a.86.86,0,0,1-.52-.175c-2.762-2.084-6.91-1.3-6.95-1.29a.853.853,0,0,1-1.016-.679.865.865,0,0,1,.679-1.016c.2-.038,4.948-.943,8.326,1.606a.864.864,0,0,1-.52,1.553Z" transform="translate(-275.259 -179.258)" fill="#1a4850"/></g><path d="M266.045,189.441c.35,2.12,1.587,3.68,2.762,3.485s1.848-2.069,1.5-4.189-1.586-3.675-2.761-3.483S265.7,187.324,266.045,189.441Z" transform="translate(-242.406 -138.169)" fill="#1a4850"/><path d="M276.338,187.743c.35,2.118,1.586,3.677,2.764,3.485s1.848-2.069,1.5-4.186-1.587-3.68-2.764-3.485S275.988,185.626,276.338,187.743Z" transform="translate(-229.924 -140.228)" fill="#1a4850"/><path d="M291.783,194.131s-14.8,3.97-23,2.392c0,0,5.671,7.145,13.767,5.085S291.783,194.131,291.783,194.131Z" transform="translate(-238.974 -127.385)" fill="#1a4850"/><path d="M306.031,182.7s-19.25,13.938-43.415,15L263.3,219.2s-22.521-41.5,22.02-48.847,31.577,39,31.577,39S315.519,189.369,306.031,182.7Z" transform="translate(-252.523 -157.172)" fill="#0e3944"/><g transform="translate(35.4 43.081)"><path d="M273.672,201.321l-.124-1.859c.027,0,2.6-.2,3.264-1.792.277-.655-.819-2.744-1.786-4.585a35.2,35.2,0,0,1-3.717-9.282l1.828-.367a33.608,33.608,0,0,0,3.54,8.784c1.432,2.733,2.467,4.706,1.852,6.171C277.414,201.049,273.825,201.312,273.672,201.321Z" transform="translate(-271.309 -183.436)" fill="#db614d"/></g><path d="M319.262,189.54c-32.38-14.05-62.94,15.084-62.94,15.084S252.76,181.017,259,175.49a37.184,37.184,0,0,1,5.184-3.857c14.3-9.017,33.312-8.844,42.032-5.749a10.608,10.608,0,0,1,3.956,2.21C315.33,173.45,319.262,189.54,319.262,189.54Z" transform="translate(-255.31 -163.966)" fill="#ce364c"/><path d="M311.473,184.285s-27.194-5.381-52.547,11.4c0,0-1.622-15.23,1.4-24.05,14.3-9.017,33.312-8.844,42.032-5.749C307.443,171.682,311.473,184.285,311.473,184.285Z" transform="translate(-251.453 -163.966)" fill="#cfd8dc"/><path d="M256.978,198.835s4.31-18.31,10.118-23.468c9.663-8.579,36.81-11.526,51.08-6.368s0,20.748,0,20.748S295.434,173.458,256.978,198.835Z" transform="translate(-253.288 -160.951)" fill="#a02e44"/></g><path d="M284.656,236.073s11.114,17.215,30.041,27.344c0,0,23.678-20.554,54.379-18.7,0,0-25.446,45.909-47.3,50.993-11.479,2.671-53-24.822-53-24.822S277.071,241.664,284.656,236.073Z" transform="translate(-229.058 -76.523)" fill="#ff8b66"/><path d="M260.378,224.983c10.169-16.56,33.635,7.919,41.62,25.4s13.811,21.189,13.811,21.189-23.443,9.793-23.277,27.366C292.533,298.937,238.183,261.114,260.378,224.983Z" transform="translate(-245.708 -96.641)" fill="#adbec4"/><path d="M289.533,277.052s14.281-14.011,61.238-32.3l-6.065-19.073c5.388-7.089,15.292-7.089,15.292-7.089s24.058,33.973,19.916,44.121C377.327,269.053,327.146,275.7,289.533,277.052Z" transform="translate(-203.894 -97.721)" fill="#ef6e4b"/><path d="M312.774,244.76a12.533,12.533,0,0,1,2.107-4.456c1.735-2.449,1.266-6.908,1.887-8.291s4.317-7.03,6.769-8.127,5.669-2.9,6.353.215-4.392,2.23-6.671,6.707c0,0,4.987-1.613,8.941-.677s5.078,4.554.19,4.434c-3.9-.1-8.919,2.682-8.919,2.682s5.08.763,4.259,3.107C326.557,243.592,320.361,241.6,312.774,244.76Z" transform="translate(-175.71 -93.15)" fill="#ff8b66"/></g><g transform="translate(191.713 233.339)"><path d="M159.4,317.436c4.2,10.747,21.392,29.172,21.392,29.172s42.005-25.18,61.384-14.586,34.779,17.057,47.347,12.444S248.2,241.842,248.2,241.842l-69.874-26.665s-1.525,17.673-9.508,20.812-16.5,32.314-15.925,37.841S159.4,317.436,159.4,317.436Z" transform="translate(-23.312 -84.731)" fill="#3e6575"/><path d="M283.254,293.556s-18.016,35.319-55.215,80.55c0,0-3.812,53.788-102.179,138.416l-10.3-8.1s58.581-91.762,70.3-119.9-6.477-53.912,47.429-125.074Z" transform="translate(-68.549 -31.04)" fill="#ef6e4b"/><path d="M180.656,246.62c-15.511,29.71-20.715,67.692-20.715,67.692l-7.063,17.819s25.052,13.511,53.98,18.425l11.6-30.71Z" transform="translate(-23.297 -46.601)" fill="#662c33"/><path d="M235.069,273.608s7.68,38.9,6.415,97.446c0,0,30.265,44.63,5.288,171.964h-13.1s-10.7-108.337-18.892-137.695S176.351,366.961,174.714,277.7Z" transform="translate(3.183 -13.873)" fill="#ff8b66"/><g transform="translate(154.796 199.809)"><path d="M255.41,348.085s-24.64,4.421-68.049,2.383l-.688-4.89-.17-1.252-4.5-31.641a85.149,85.149,0,0,1-8.477-13.561c-.516-.982-1.007-1.989-1.5-3.045-5.846-12.455-11.03-30.561-5.209-49.453l9.165.418,1.277.073,30.659,1.4,1.3.075,10.072.465,1.573.075,6.534.294s33.214,29.9,27.293,85.172l.418,7.689.049,1.252Z" transform="translate(-164.274 -246.404)" fill="#8b383e"/><g transform="translate(7.214)"><path d="M173.311,247.238c-.861,2.531-6.658,21.3-3.735,52.007-.516-.982-1.007-1.989-1.5-3.045-2.186-28.079,2.85-45.6,3.956-49.035.146-.418.221-.613.221-.639l1.153.418C173.408,246.968,173.36,247.067,173.311,247.238Z" transform="translate(-167.534 -246.525)" fill="#662c33"/><path d="M242.981,343.284c-8.72,2.235-23.51,2.85-37.562,2.85-12.6,0-24.565-.516-30.929-.812l-.17-1.252c11.03.54,40.067,1.671,58.786-.367l-1.2-19.777c.294-23.067-6.682-42.769-13.413-56.379-17.049-3.1-21.742-15.723-22.748-19.286-.148-.564-.221-.909-.221-.934l1.2-.195c0,.022.1.465.319,1.2,1.106,3.684,5.676,14.666,20.735,17.81A122.075,122.075,0,0,0,207.114,248.8c-.54-.737-.883-1.153-.907-1.179l.934-.785c.049.049.613.737,1.547,2.04,5.7,7.738,24.935,36.85,24.443,75l1.2,19.677a64.983,64.983,0,0,0,8.6-1.522Z" transform="translate(-159.305 -246.148)" fill="#662c33"/></g></g><path d="M224.279,186.767c-9.778-5.386-80.236,22.246-80.236,22.246s-10.424,18.593-3.927,25.884,29.552,4.076,36.615,0,25.771-7.16,25.771-7.16Z" transform="translate(-41.359 -120.028)" fill="#8bbddb"/><path d="M238.939,164.306a36.825,36.825,0,0,1,19.879,22.386c5.324,16.768-10.592,59.218-5.091,78.731s4.647,56.363-12.533,64.143-52.409-6.142-59.974-27.433-4.3-101.949,10.24-129.382S235.438,159.135,238.939,164.306Z" transform="translate(6.288 -156.223)" fill="#f24052"/><path d="M216.1,196.583c3.839,4.138,13.708-3.237,13.708-3.237s-.2,36.589-10.835,39.394-37.737-28.822-36.622-37.421S207.587,187.4,216.1,196.583Z" transform="translate(12.401 -116.154)" fill="#8bbddb"/><path d="M198.392,188.436s10.758,9.134,29.5,13.477,28.9-4.465,38.483,7.618c14.385,18.137-9.019,51.573-21.335,68.9-4.589,6.461-14.278,24.377-16.234,41.565,0,0-32.517,9.446-60.559-2.817l-2.093-39.892S148.474,223.525,198.392,188.436Z" transform="translate(-10.886 -117.159)" fill="#0e3944"/><path d="M194.251,226.91s14.858-35.409,19.16-37.669,15.214,3.166,17.407,8.01,0,15.409,0,15.409S219.1,199.285,194.251,226.91Z" transform="translate(26.875 -116.823)" fill="#8bbddb"/><path d="M270,371.083c-6.755,13.829-23.339,17.81-23.339,17.81s-1.252-1.916-3.365-5.357c-.221-.343-.467-.737-.688-1.129-13.044-21.153-52.916-88.832-52.128-124.036.909-42.059,28.349-65.15,28.349-65.15,13.929,3.317,18.328,7.125,18.328,7.125a172.116,172.116,0,0,1,.392,52.719c-4.3,28.767-12.11,36.383-8.18,38.545,3.905,2.137,0,6.437,0,6.437s23.118,32.205,27.442,42.229c2.8,6.534,7.565,17.637,10.539,24.565.195.493.392.985.589,1.425C269.189,369.191,270,371.083,270,371.083Z" transform="translate(22.288 -111.355)" fill="#6097b2"/><path d="M213.707,196.439s-16.553,12.269-6.91,31.015l45.878,47.5C227.494,301.78,225,312.8,206.8,325.166l6.91,10.7s63.747-48.993,63.842-60.917C277.589,269.844,238.611,208.093,213.707,196.439Z" transform="translate(38.429 -107.454)" fill="#ff8b66"/><path d="M219.67,254.634a137.136,137.136,0,0,0-14.252,2.345c-5.507,1.378-12.849,2.755-13.079,3.9s12.161,0,12.161,0-10.094,4.149-10.324,5.746,12.849-1.157,12.849-1.157-8.26,5.047-7.8,6.426,10.634-2.067,10.634-2.067-1.892,4.819-3.854,7.114c0,0,1.972,1.082,5.97-3.359s10.386-3.016,15.44-6.957S224.272,254.041,219.67,254.634Z" transform="translate(24.552 -36.918)" fill="#ff8b66"/><path d="M223.18,196.816s-12.592,8.136-20.545,27.789S169.589,281.24,163.71,290.8s-1.783,61.554-1.783,61.554-7.37-31.528-10.645-43.811,10.577-42.634,12.659-44.245,12.725,1.336,10.678-10.988,26.517-65.427,34.139-66.922C208.758,186.385,220.972,188.68,223.18,196.816Z" transform="translate(-25.838 -119.646)" fill="#6097b2"/><path d="M190.989,204.538a9.33,9.33,0,0,1-.761,1.23c-2.85,4.1-8.156,7.368-8.156,7.368s-9.607,13.464-9.7,15.011c-.1,1.328-16.681,13.365-24.05,13.119h-.024a3.643,3.643,0,0,1-2.434-.836C141.487,236.3,160.749,201.663,165,194.2c.27-.491.491-.859.639-1.1.1-.2.173-.321.173-.321s-3.392-12.625,10.76-10.269c11.767,1.941,14.1,11.3,15.329,17.566A6.69,6.69,0,0,1,190.989,204.538Z" transform="translate(-32.586 -124.711)" fill="#6097b2"/><path d="M148.085,222.821c9.72-12.776,43.924-37.558,61.939-44.9l4.505,8.373S179.715,216.9,171.537,230s-18.31,18.509-27.988,14.148S146.04,225.51,148.085,222.821Z" transform="translate(-39.09 -129.904)" fill="#ff8b66"/><path d="M195.264,202.17l-1.843,2.111-.934,1.082-3.047,3.487s-7.665,9.287-7.368,13.022c.219,2.677-14.544,14.666-26.09,19.653-4.693,2.038-8.868,2.923-11.3,1.522-8.351-4.815-6.485-19.284-1.744-29.086,4.127-8.55,22.381-19.58,27.072-22.282a12.081,12.081,0,0,1,1.082-.639l.024-.024,1.744-6.78s6.364-3.832,11.375-1.476c0,0-11.057.467-9.238,4.766C176.863,191.85,192.192,202.022,195.264,202.17Z" transform="translate(-40.25 -124.97)" fill="#8bbddb"/><g transform="translate(168.278 14.793)"><path d="M197.242,189.864c-11.128,4.571-9.532,14.643-19.726,14.643-6.315,0-7.149-7.224-7.149-7.224,2.85-6.165,4.667-16.679,5.06-21.691.418-5.012,2.089-3.071,2.089-3.071,0-.467-.024-.909-.049-1.352-.148-3.365-.763-5.822,1.449-4.372,2.5,1.622,3.365,11.154,3.365,11.154,2.062-13.9-1.007-15.969,1.4-14.741,3.29,1.671,3.315,13.953,3.315,14.323,2.653-8.083,1.943-12.7,3.784-10.858,1.867,1.865-.934,16.7-2.038,22.158-.246,1.228-.418,1.989-.418,1.989C197.145,186.5,197.242,189.864,197.242,189.864Z" transform="translate(-170.367 -162.909)" fill="#ff8b66"/><path d="M182.765,174.625c-.246,1.228-.418,1.989-.418,1.989s-4.078-.392-7.05,4A7.274,7.274,0,0,1,182.765,174.625Z" transform="translate(-164.389 -148.7)" fill="#ef6e4b"/><path d="M174.238,177.969c.075-1.179.566-7.935-.613-9.975,0-.467-.024-.909-.049-1.352C176.129,167.184,174.51,176.544,174.238,177.969Z" transform="translate(-166.476 -158.381)" fill="#ef6e4b"/></g><path d="M177,213.774s7.521-20.383,9.913-24.935,14.854-3.77,24.284-2.011,11.358,14.387,11.358,14.387S193.861,187.675,177,213.774Z" transform="translate(5.95 -120.786)" fill="#8bbddb"/><path d="M214.632,186.208s-9.01,16.635-8.866,35.086c0,0-14.635,9.946-19.872-2.511,0,0,5.558-16.321,2.872-38.352C186.967,165.677,214.632,186.208,214.632,186.208Z" transform="translate(16.74 -133.336)" fill="#ef6e4b"/><g transform="translate(192.858 2.835)"><path d="M191.252,172.546s-2.677-9.537-7.443-2.832c-5.521,7.766.106,15.316,3.051,13.515S191.252,172.546,191.252,172.546Z" transform="translate(-181.476 -145.594)" fill="#ff8b66"/><path d="M208.878,181.015s9.541-2.655,6.282,4.9c-3.779,8.747-13.152,7.851-13.139,4.4S208.878,181.015,208.878,181.015Z" transform="translate(-156.561 -129.542)" fill="#ff8b66"/><path d="M193.893,222.1c-13.557-7.634-16.221-20.8-1.266-47.356,7.713-13.7,19.416-18.177,34.6-9.627s16.847,20.554,9.132,34.254C220.291,227.907,207.9,229.985,193.893,222.1Z" transform="translate(-180.212 -153.553)" fill="#ff8b66"/><path d="M206.2,183.63c-.531,1.5-2.476,2.173-4.348,1.511s-2.958-2.412-2.43-3.91,2.476-2.173,4.348-1.509S206.729,182.135,206.2,183.63Z" transform="translate(-159.875 -130.869)" fill="#db614d"/><path d="M193.132,177.366c-.865,1.332-2.916,1.529-4.58.445s-2.308-3.04-1.44-4.37,2.919-1.529,4.58-.445S194,176.038,193.132,177.366Z" transform="translate(-175.109 -139.565)" fill="#db614d"/><g transform="translate(42.94 28.714)"><path d="M206.208,177.358a.777.777,0,0,1-.755-.586c-.768-3.025-4.12-4.806-4.153-4.824a.777.777,0,0,1,.719-1.378c.164.084,4,2.129,4.941,5.819a.777.777,0,0,1-.562.945A.713.713,0,0,1,206.208,177.358Z" transform="translate(-200.882 -170.481)" fill="#1a4850"/></g><g transform="translate(21.963 19.384)"><path d="M199.087,169.226a.784.784,0,0,1-.4-.111c-.031-.02-3.3-1.96-6.28-1.051a.777.777,0,0,1-.451-1.487c3.644-1.117,7.379,1.111,7.536,1.208a.777.777,0,0,1-.4,1.44Z" transform="translate(-191.402 -166.265)" fill="#1a4850"/></g><path d="M203.007,178.771c-.949,1.682-2.476,2.62-3.41,2.093s-.925-2.319.022-4,2.476-2.62,3.41-2.093S203.956,177.085,203.007,178.771Z" transform="translate(-160.344 -136.746)" fill="#1a4850"/><path d="M194.417,174.162c-.949,1.684-2.476,2.622-3.41,2.1s-.925-2.319.022-4,2.476-2.622,3.412-2.093S195.364,172.479,194.417,174.162Z" transform="translate(-170.76 -142.333)" fill="#1a4850"/><path d="M189.271,179.7s7.778,5.934,13.4,6.116c0,0-5.976,4.868-10.273,1.71A7.754,7.754,0,0,1,189.271,179.7Z" transform="translate(-172.199 -130.586)" fill="#1a4850"/><path d="M198.91,176.769s3.571-3.452,5.032-2.237.7,5.463.7,5.463l3.122.08-2.582-1.04s.832-4.412-.774-5.326C202.118,172.408,198.91,176.769,198.91,176.769Z" transform="translate(-160.334 -138.147)" fill="#1a4850"/><path d="M196.9,175.374s1.1-4.841-.7-5.461-5.029,2.237-5.029,2.237l-1.688-2.631,2.228,1.671s3.341-3,4.954-2.1C198.962,170.372,196.9,175.374,196.9,175.374Z" transform="translate(-171.768 -143.658)" fill="#1a4850"/><path d="M227.5,174.745s-4.857-6.749-11.563-1.39-21.835,13.935-29.276,11.1,16.281-34.54,36.879-25.255,18.744,39.512,10.176,49.121-4.514.655-4.514.655.571-13.634,3.434-22.669S227.5,174.745,227.5,174.745Z" transform="translate(-176.884 -157.504)" fill="#f24052"/><g transform="translate(26.61 39.412)"><path d="M194.677,181.927a4.828,4.828,0,0,1-1.175-.153l.412-1.626a1.935,1.935,0,0,0,2.394-.805,2.075,2.075,0,0,0,.031-2.2c-.215-.223-.58-.2-1.093.069l-.779-1.487a2.412,2.412,0,0,1,3.087.261,3.688,3.688,0,0,1,.2,4.2A3.444,3.444,0,0,1,194.677,181.927Z" transform="translate(-193.502 -175.316)" fill="#db614d"/></g></g><g transform="translate(239.107 88.627)"><path d="M283.2,273.265c-.81,11.913-30.289,50.7-35.2,52.08a13.075,13.075,0,0,0-3.808,1.892c-.516.37-1.031.761-1.522,1.155a37.2,37.2,0,0,0-4.914,4.863c-8.6-.564-32.745-11.743-24.983-14.2a5.942,5.942,0,0,0,1.549-.812,8.992,8.992,0,0,0,1.007-.786c9.138-7.665,26.924-38.766,27.048-41.125.1-2.578,3.169-3.069,3.169-3.069s-16.779-24.64-26.508-27.614-14.641-14.739-14.641-14.739c-9.605-40.658,18.328-34.27,18.328-34.27C243.3,208.9,284.006,261.325,283.2,273.265Z" transform="translate(-202.377 -196.277)" fill="#8bbddb"/><g transform="translate(11.936 121.182)"><path d="M237.643,260.822c-.516.37-1.031.761-1.522,1.155-13.192-.909-24.246-7.395-28.349-10.147a8.995,8.995,0,0,0,1.007-.786C213.175,253.918,224.427,260.331,237.643,260.822Z" transform="translate(-207.772 -251.044)" fill="#3e6575"/></g></g><g transform="translate(129.758 66.071)"><path d="M181.6,199.839a9.332,9.332,0,0,1-.761,1.23,31.844,31.844,0,0,1-5.406-.664c-8.72-1.77-15.427-6.658-19.826-10.908-1.007-.982-1.892-1.916-2.653-2.775a12.083,12.083,0,0,1,1.082-.639c.637.713,1.374,1.5,2.21,2.31,4.372,4.3,11.178,9.309,20.12,10.931A29.816,29.816,0,0,0,181.6,199.839Z" transform="translate(-152.958 -186.083)" fill="#3e6575"/></g><g transform="translate(264.897 253.486)"><path d="M239.361,272.209c-4.054,6.855-11.546,15.135-24.64,17.27-.221-.343-.467-.737-.688-1.128,13.438-2.016,20.883-10.736,24.74-17.566C238.968,271.277,239.165,271.769,239.361,272.209Z" transform="translate(-214.033 -270.784)" fill="#3e6575"/></g><g transform="translate(0 457.068)"><path d="M160.963,384.163a43.224,43.224,0,0,0-6.264,8.574c-3.2,5.552.319,10.663-15.135,23.536,0,0-31.174-18.255-45.249-41.716a9.081,9.081,0,0,1,7.05-8.278c3.66-.836,13.732,3.881,23.412,5.7a39.757,39.757,0,0,0,4.1.564,23.792,23.792,0,0,0,4.961-.024,14.673,14.673,0,0,0,4.178-1.007h.024c3.292-1.352,5.9-4.029,7.246-8.722,0,0,8.28,4.717,2.753,12.7C148.041,375.492,157.867,371.193,160.963,384.163Z" transform="translate(-94.315 -362.791)" fill="#cfd8dc"/><path d="M139.564,409.854S108.39,391.6,94.315,368.139c0,0,5.231-1.1,9.554,6.658C108.193,382.585,142.1,400.249,139.564,409.854Z" transform="translate(-94.315 -356.372)" fill="#adbec4"/><path d="M118.026,374.595c-2.531,4-2.48-3.392-5.848-6.855a14.672,14.672,0,0,0,4.178-1.007h.024C117.878,368.353,120.015,371.473,118.026,374.595Z" transform="translate(-72.653 -358.011)" fill="#adbec4"/><path d="M113.191,374.558c-2.677,2.531-3.538-4.076-5.109-7.614a39.757,39.757,0,0,0,4.1.564C113.755,369.646,115.231,372.617,113.191,374.558Z" transform="translate(-77.62 -357.755)" fill="#adbec4"/></g><g transform="translate(213.521 513.272)"><path d="M235.729,434.357h-44.1a25.942,25.942,0,0,1,0-12.9c.788-2.923,5.357-5.651,9.605-9.459a33.865,33.865,0,0,0,3.366-3.414,19.813,19.813,0,0,0,2.237-3.217,16.029,16.029,0,0,0,1.817-4.6c.712-3.341.443-7.271-1.474-11.986,0,0,15.011-3.146,20.365,5.036,0,0,.516-3.784,5.282-1.254a69.925,69.925,0,0,0,.246,13.953C234.01,412.861,239.931,414.7,235.729,434.357Z" transform="translate(-190.814 -388.192)" fill="#cfd8dc"/><path d="M215.473,401.3a1.958,1.958,0,0,1-1.474.664,2.14,2.14,0,0,1-1.3-.443,16.1,16.1,0,0,0-14.641-2.653,16.03,16.03,0,0,0,1.817-4.6c2.949-1.08,8.5-1.719,15.354,4.129A2.016,2.016,0,0,1,215.473,401.3Z" transform="translate(-182.031 -381.688)" fill="#adbec4"/><path d="M214.835,404.194l-.246.369a2.011,2.011,0,0,1-2.7.664c-3-1.77-9.729-5.111-16.363-4.153a33.861,33.861,0,0,0,3.366-3.414,17.539,17.539,0,0,1,15.5,3.857A2.056,2.056,0,0,1,214.835,404.194Z" transform="translate(-185.102 -377.266)" fill="#adbec4"/></g></g></g></svg>