<svg id="Layer_1" data-name="Layer 1" xmlns="http://www.w3.org/2000/svg" xmlns:xlink="http://www.w3.org/1999/xlink" viewBox="0 0 121.31 121.33"><defs><style>.cls-1{fill:url(#linear-gradient);}.cls-2{fill:url(#linear-gradient-2);}</style><linearGradient id="linear-gradient" x1="171.95" y1="122.32" x2="87.63" y2="230.73" gradientUnits="userSpaceOnUse"><stop offset="0" stop-color="#7566aa"/><stop offset="1" stop-color="#89d0f4"/></linearGradient><linearGradient id="linear-gradient-2" x1="175.48" y1="125.06" x2="91.15" y2="233.47" xlink:href="#linear-gradient"/></defs><path class="cls-1" d="M195.38,190.88a60.74,60.74,0,0,1-63.24,17.43c-1.45-.45-2.87-1-4.27-1.51q-2.37-.93-4.63-2.07a59,59,0,0,1-8.06-4.82,60.67,60.67,0,0,1-6.63-5.44,60,60,0,0,1-6.85-7.65,61.55,61.55,0,0,1-5.93-9.67A59.81,59.81,0,0,1,91.4,165.3a60.62,60.62,0,0,1-1.81-12.94c0-.65,0-1.31,0-2A60.68,60.68,0,0,1,125,95.2a59.63,59.63,0,0,0-17.83,38.43c-.11,1.45-.16,2.91-.16,4.38a59.92,59.92,0,0,0,.61,8.54,58.25,58.25,0,0,0,3.43,13.14,60.11,60.11,0,0,0,12.77,20,60.81,60.81,0,0,0,8.94,7.62,59.63,59.63,0,0,0,25.33,10.06,60.63,60.63,0,0,0,8.9.66h.71A59.58,59.58,0,0,0,195.38,190.88Z" transform="translate(-89.55 -89.73)"/><path class="cls-2" d="M194.55,159.71a59.77,59.77,0,0,1-5.67,15.48,96.36,96.36,0,0,1,15.48,2.57,59.37,59.37,0,0,1-6.34,10,98.16,98.16,0,0,0-16.64-1.55A61,61,0,0,1,174,193.4a59.35,59.35,0,0,1-10.13-.93,61.8,61.8,0,0,0,5.21-5.63,95.39,95.39,0,0,0-15.1,3,60.57,60.57,0,0,1-13.09-6.64,97,97,0,0,1,35.79-8.28,60.15,60.15,0,0,0,5.06-15.76,97.22,97.22,0,0,0-50.95,15.54,61.39,61.39,0,0,1-7.37-9.44,97.3,97.3,0,0,1,57.07-18.39l2.13,0a60.46,60.46,0,0,0-1.61-12.2c-1.52-.07-3.06-.11-4.6-.11a97.33,97.33,0,0,0-58.54,19.47,60.52,60.52,0,0,1-3.27-13.21,97.25,97.25,0,0,1,58.18-19.2c1.18,0,2.35,0,3.51.07A60.41,60.41,0,0,0,170,111.6h-1a97.26,97.26,0,0,0-54.69,16.72,59.38,59.38,0,0,1,2.4-12.79,96.92,96.92,0,0,1,43.67-13.71,60.75,60.75,0,0,0-11.86-7.56,97,97,0,0,0-25.25,6.79,59.75,59.75,0,0,1,5.43-7.39,59.55,59.55,0,0,1,10.58-3,61.54,61.54,0,0,1,10.93-1c1.95,0,3.87.09,5.78.27a59.94,59.94,0,0,1,17.1,4.19c-3-.37-6.11-.6-9.22-.69A60.37,60.37,0,0,1,176,102a97.93,97.93,0,0,1,13.57,2.2,61.18,61.18,0,0,1,11.24,12.68A96.94,96.94,0,0,0,185.55,113a59.89,59.89,0,0,1,5.63,10.36,97.13,97.13,0,0,1,15.26,4.22,59.79,59.79,0,0,1,3.64,12.94A97.2,97.2,0,0,0,195,136.35a60.68,60.68,0,0,1,.92,10.51c0,.4,0,.81,0,1.21a96.24,96.24,0,0,1,15,3.59,61.37,61.37,0,0,1-1.22,10.93A97.53,97.53,0,0,0,194.55,159.71Z" transform="translate(-89.55 -89.73)"/></svg>