<svg id="Layer_1" data-name="Layer 1" xmlns="http://www.w3.org/2000/svg" xmlns:xlink="http://www.w3.org/1999/xlink" viewBox="0 0 756.16 161.06"><defs><style>.cls-1{fill:#555;}.cls-2{fill:url(#linear-gradient);}.cls-3{fill:url(#linear-gradient-2);}.cls-4{fill:url(#linear-gradient-3);}.cls-5{fill:url(#linear-gradient-4);}.cls-6{fill:url(#linear-gradient-5);}.cls-7{fill:url(#linear-gradient-6);}.cls-8{fill:url(#linear-gradient-7);}</style><linearGradient id="linear-gradient" x1="-0.19" y1="40.09" x2="160.34" y2="200.63" gradientTransform="matrix(1, 0, 0, -1, 218.87, 87.47)" gradientUnits="userSpaceOnUse"><stop offset="0" stop-color="#7566aa"/><stop offset="1" stop-color="#89d0f4"/></linearGradient><linearGradient id="linear-gradient-2" x1="25.9" y1="14" x2="186.44" y2="174.54" xlink:href="#linear-gradient"/><linearGradient id="linear-gradient-3" x1="78.29" y1="-38.39" x2="238.83" y2="122.15" xlink:href="#linear-gradient"/><linearGradient id="linear-gradient-4" x1="98.99" y1="-59.09" x2="259.53" y2="101.45" xlink:href="#linear-gradient"/><linearGradient id="linear-gradient-5" x1="55.98" y1="-16.07" x2="216.51" y2="144.46" xlink:href="#linear-gradient"/><linearGradient id="linear-gradient-6" x1="-51.62" y1="15.15" x2="-135.94" y2="-93.26" xlink:href="#linear-gradient"/><linearGradient id="linear-gradient-7" x1="-48.06" y1="12.39" x2="-132.39" y2="-96.02" xlink:href="#linear-gradient"/></defs><path class="cls-1" d="M0,100.34C0,76,21.31,55.56,46.53,55.56A47.5,47.5,0,0,1,81,70.45l-15.76,14a24.17,24.17,0,0,0-18.67-9.31c-13.24,0-24.46,11.61-24.46,25.23s11.22,25.34,24.46,25.34a24.4,24.4,0,0,0,18.79-9.33L81,130.25a47.09,47.09,0,0,1-34.43,15C21.31,145.23,0,124.68,0,100.34Z" transform="translate(0 0)"/><path class="cls-1" d="M217.17,57.08h21.56l37.71,51.2V57.08H298v86.64H276.44l-37.71-51.2v51.2H217.17Z" transform="translate(0 0)"/><path class="cls-1" d="M308.72,100.34c0-24.34,21.32-44.78,46.54-44.78a47.5,47.5,0,0,1,34.43,14.89l-15.76,14a24.17,24.17,0,0,0-18.67-9.31c-13.24,0-24.46,11.61-24.46,25.23s11.22,25.34,24.46,25.34a24.4,24.4,0,0,0,18.79-9.33l15.64,13.87a47.09,47.09,0,0,1-34.43,15C330,145.23,308.72,124.68,308.72,100.34Z" transform="translate(0 0)"/><path class="cls-1" d="M398.26,57.08h21.61v86.64H398.26Z" transform="translate(0 0)"/><path class="cls-1" d="M455.26,76.37v13.5h42.38v19.27H455.26V124.4h46.67v19.3H433.7V57.08h68.23V76.37Z" transform="translate(0 0)"/><path class="cls-1" d="M563.87,143.72l-19-27.12H534.21v27.12H512.64V57.08h40.23c19,0,32.92,12.23,32.92,29.76,0,12.61-7.19,22.58-18.41,27.12l20.93,29.76ZM534.23,96.93h16.64c7.44,0,12.73-4,12.73-10.09s-5.29-10.09-12.73-10.09H534.21Z" transform="translate(0 0)"/><path class="cls-1" d="M636.61,94h39.47v36.19c-8.82,9.46-22.07,15-35.43,15-25.61,0-47-20.55-47-44.89s21.43-44.78,47-44.78c13.36,0,26.61,5.55,35.43,14.89l-15.76,14a25.79,25.79,0,0,0-19.67-9.3c-13.5,0-25,11.61-25,25.23s11.47,25.34,25,25.34a26.25,26.25,0,0,0,14.5-4.54V110.3H636.61Z" transform="translate(0 0)"/><path class="cls-1" d="M709.5,76.37v13.5h42.37v19.27H709.5V124.4h46.66v19.3H687.94V57.08h68.22V76.37Z" transform="translate(0 0)"/><path class="cls-2" d="M217.17,24.07C217.17,11,228.56,0,241.92,0A25,25,0,0,1,260,7.79l-7.26,6.51a14.52,14.52,0,0,0-10.85-5.22c-7.8,0-14.44,6.92-14.44,15s6.64,15.06,14.44,15.06a14.53,14.53,0,0,0,10.85-5.23L260,40.42a25.2,25.2,0,0,1-18.11,7.8C228.56,48.21,217.17,37.14,217.17,24.07Z" transform="translate(0 0)"/><path class="cls-3" d="M314.74.81V47.4h-10V28.14h-21.2V47.4h-10V.81h10V19.14h21.23V.81Z" transform="translate(0 0)"/><path class="cls-4" d="M393.92.81h10V47.4h-10Z" transform="translate(0 0)"/><path class="cls-5" d="M448.63,47.4,438,32.28h-7.39V47.4h-10V.81h21c10.11,0,17.57,6.51,17.57,15.73a15.16,15.16,0,0,1-10.58,14.6L460,47.42Zm-18-24.26h9.9c4.95,0,8.34-2.58,8.34-6.58S445.44,10,440.49,10h-9.9Z" transform="translate(0 0)"/><path class="cls-6" d="M354.26,0c-13.36,0-24.75,11-24.75,24.07a24.22,24.22,0,0,0,11.23,20.07,15.64,15.64,0,0,1,7.66-6.63,14.86,14.86,0,1,1,11.72,0,15.7,15.7,0,0,1,7.68,6.66A24.2,24.2,0,0,0,379,24.07C379,11,367.76,0,354.26,0Z" transform="translate(0 0)"/><path class="cls-7" d="M190.69,140.89a60.74,60.74,0,0,1-63.24,17.43c-1.45-.45-2.87-1-4.27-1.51q-2.37-.93-4.63-2.07a59.31,59.31,0,0,1-8.07-4.82A61.76,61.76,0,0,1,97,136.83a62,62,0,0,1-5.94-9.69,60.93,60.93,0,0,1-6.2-24.77v-2a60.66,60.66,0,0,1,35.46-55.2A59.79,59.79,0,0,0,102.5,83.64c-.11,1.45-.16,2.91-.16,4.38a61,61,0,0,0,.6,8.54,59.91,59.91,0,0,0,50.49,50.69,60.28,60.28,0,0,0,8.9.66h.7A59.62,59.62,0,0,0,190.69,140.89Z" transform="translate(0 0)"/><path class="cls-8" d="M189.87,109.72a59.69,59.69,0,0,1-5.67,15.48,95.44,95.44,0,0,1,15.48,2.57,59.53,59.53,0,0,1-6.35,10,97.74,97.74,0,0,0-16.64-1.55,60.15,60.15,0,0,1-7.33,7.21,59.27,59.27,0,0,1-10.13-.93,63,63,0,0,0,5.21-5.63,94.5,94.5,0,0,0-15.1,3,60.14,60.14,0,0,1-13.09-6.64A97.16,97.16,0,0,1,172,125a59.78,59.78,0,0,0,5.05-15.81,97.17,97.17,0,0,0-50.95,15.54,61.12,61.12,0,0,1-7.37-9.44,97.34,97.34,0,0,1,57.1-18.37H178a60.43,60.43,0,0,0-1.6-12.2c-1.52-.07-3.06-.11-4.6-.11A97.31,97.31,0,0,0,113.25,104,60.22,60.22,0,0,1,110,90.82a97.22,97.22,0,0,1,58.18-19.2c1.17,0,2.35,0,3.51.07a60.34,60.34,0,0,0-6.37-10.11h-1A97.27,97.27,0,0,0,109.61,78.3,59.75,59.75,0,0,1,112,65.51,97,97,0,0,1,155.68,51.8a60.8,60.8,0,0,0-11.81-7.53,97,97,0,0,0-25.25,6.79A60.43,60.43,0,0,1,124,43.67a60,60,0,0,1,10.59-3,61.64,61.64,0,0,1,10.93-1q2.92,0,5.77.27a60.14,60.14,0,0,1,17.11,4.19c-3-.37-6.11-.6-9.22-.69a60.41,60.41,0,0,1,12.11,8.5,98.36,98.36,0,0,1,13.54,2.27A60.56,60.56,0,0,1,196.1,66.89,96.33,96.33,0,0,0,180.87,63a59.39,59.39,0,0,1,5.64,10.36,97.18,97.18,0,0,1,15.26,4.22,60.42,60.42,0,0,1,3.64,12.94,97,97,0,0,0-15.07-4.17,60.74,60.74,0,0,1,.92,10.51v1.21a95.47,95.47,0,0,1,15,3.59A61.79,61.79,0,0,1,205,112.6,97.79,97.79,0,0,0,189.87,109.72Z" transform="translate(0 0)"/></svg>