<svg id="Layer_1" data-name="Layer 1" xmlns="http://www.w3.org/2000/svg" xmlns:xlink="http://www.w3.org/1999/xlink" viewBox="0 0 756.17 161.07"><defs><style>.cls-1{fill:#fff;}.cls-2{fill:url(#linear-gradient);}.cls-3{fill:url(#linear-gradient-2);}.cls-4{fill:url(#linear-gradient-3);}.cls-5{fill:url(#linear-gradient-4);}.cls-6{fill:url(#linear-gradient-5);}.cls-7{fill:url(#linear-gradient-6);}.cls-8{fill:url(#linear-gradient-7);}</style><linearGradient id="linear-gradient" x1="-0.19" y1="122.24" x2="160.34" y2="-38.3" gradientUnits="userSpaceOnUse"><stop offset="0" stop-color="#7566aa"/><stop offset="1" stop-color="#89d0f4"/></linearGradient><linearGradient id="linear-gradient-2" x1="25.91" y1="148.34" x2="186.45" y2="-12.2" xlink:href="#linear-gradient"/><linearGradient id="linear-gradient-3" x1="78.3" y1="200.73" x2="238.84" y2="40.19" xlink:href="#linear-gradient"/><linearGradient id="linear-gradient-4" x1="98.99" y1="221.42" x2="259.53" y2="60.88" xlink:href="#linear-gradient"/><linearGradient id="linear-gradient-5" x1="55.97" y1="178.39" x2="216.5" y2="17.86" xlink:href="#linear-gradient"/><linearGradient id="linear-gradient-6" x1="-51.61" y1="147.19" x2="-135.93" y2="255.6" xlink:href="#linear-gradient"/><linearGradient id="linear-gradient-7" x1="-48.08" y1="149.93" x2="-132.41" y2="258.34" xlink:href="#linear-gradient"/></defs><path class="cls-1" d="M-218.87,175.2c0-24.34,21.31-44.78,46.53-44.78a47.49,47.49,0,0,1,34.43,14.89l-15.76,14A24.18,24.18,0,0,0-172.34,150c-13.24,0-24.46,11.61-24.46,25.23s11.22,25.34,24.46,25.34a24.38,24.38,0,0,0,18.79-9.33l15.64,13.87a47.1,47.1,0,0,1-34.43,15C-197.56,220.09-218.87,199.54-218.87,175.2Z" transform="translate(218.87 -74.86)"/><path class="cls-1" d="M-1.7,131.94H19.86l37.71,51.2v-51.2H79.14v86.64H57.57l-37.71-51.2v51.2H-1.7Z" transform="translate(218.87 -74.86)"/><path class="cls-1" d="M89.85,175.2c0-24.34,21.32-44.78,46.54-44.78a47.51,47.51,0,0,1,34.43,14.89l-15.76,14A24.18,24.18,0,0,0,136.39,150c-13.24,0-24.46,11.61-24.46,25.23s11.22,25.34,24.46,25.34a24.38,24.38,0,0,0,18.79-9.33l15.64,13.87a47.12,47.12,0,0,1-34.43,15C111.17,220.09,89.85,199.54,89.85,175.2Z" transform="translate(218.87 -74.86)"/><path class="cls-1" d="M179.39,131.94H201v86.64H179.39Z" transform="translate(218.87 -74.86)"/><path class="cls-1" d="M236.39,151.23v13.5h42.38V184H236.39v15.26h46.67v19.3H214.83V131.94h68.23v19.29Z" transform="translate(218.87 -74.86)"/><path class="cls-1" d="M345,218.58l-19.05-27.12H315.34v27.12H293.77V131.94H334c19.05,0,32.92,12.23,32.92,29.76,0,12.61-7.19,22.58-18.41,27.12l20.93,29.76Zm-29.64-46.79H332c7.44,0,12.73-4,12.73-10.09s-5.29-10.09-12.73-10.09H315.34Z" transform="translate(218.87 -74.86)"/><path class="cls-1" d="M417.74,168.89h39.47v36.19c-8.82,9.46-22.07,15-35.43,15-25.61,0-47-20.55-47-44.89s21.43-44.78,47-44.78c13.36,0,26.61,5.55,35.43,14.89l-15.76,14A25.78,25.78,0,0,0,421.78,150c-13.5,0-25,11.61-25,25.23s11.47,25.34,25,25.34a26.28,26.28,0,0,0,14.5-4.54V185.16H417.74Z" transform="translate(218.87 -74.86)"/><path class="cls-1" d="M490.63,151.23v13.5H533V184H490.63v15.26h46.66v19.3H469.07V131.94h68.22v19.29Z" transform="translate(218.87 -74.86)"/><path class="cls-2" d="M-1.7,98.93c0-13.09,11.39-24.07,24.75-24.07a25,25,0,0,1,18.11,7.79L33.9,89.16a14.54,14.54,0,0,0-10.85-5.22c-7.8,0-14.44,6.92-14.44,15S15.25,114,23.05,114a14.52,14.52,0,0,0,10.85-5.23l7.26,6.51a25.2,25.2,0,0,1-18.11,7.8C9.69,123.07-1.7,112-1.7,98.93Z" transform="translate(218.87 -74.86)"/><path class="cls-3" d="M95.87,75.67v46.59h-10V103H64.67v19.26h-10V75.67h10V94H85.9V75.67Z" transform="translate(218.87 -74.86)"/><path class="cls-4" d="M175.05,75.67h10v46.59h-10Z" transform="translate(218.87 -74.86)"/><path class="cls-5" d="M229.76,122.26l-10.65-15.12h-7.39v15.12h-10V75.67H222.7c10.11,0,17.57,6.51,17.57,15.73A15.16,15.16,0,0,1,229.69,106l11.46,16.28ZM211.72,98h9.9c4.95,0,8.34-2.58,8.34-6.58s-3.39-6.58-8.34-6.58h-9.9Z" transform="translate(218.87 -74.86)"/><path class="cls-6" d="M135.39,74.86c-13.36,0-24.75,11-24.75,24.07A24.21,24.21,0,0,0,121.87,119a15.66,15.66,0,0,1,7.66-6.63,14.86,14.86,0,1,1,11.72,0,15.72,15.72,0,0,1,7.68,6.66,24.21,24.21,0,0,0,11.21-20.1C160.14,85.84,148.89,74.86,135.39,74.86Z" transform="translate(218.87 -74.86)"/><path class="cls-7" d="M-28.18,215.75a60.52,60.52,0,0,1-45.17,20.17,60.63,60.63,0,0,1-18.07-2.74c-1.45-.45-2.87-1-4.27-1.51q-2.37-.93-4.63-2.07a59.11,59.11,0,0,1-8.07-4.82,60.57,60.57,0,0,1-6.62-5.44,59.22,59.22,0,0,1-6.85-7.65A61.61,61.61,0,0,1-127.8,202a60.42,60.42,0,0,1-4.36-11.85A60.62,60.62,0,0,1-134,177.23c0-.65,0-1.31,0-2A60.66,60.66,0,0,1-132.77,163a60.48,60.48,0,0,1,11.63-25.14,60.61,60.61,0,0,1,22.6-17.83,59.83,59.83,0,0,0-7,8.26A59.74,59.74,0,0,0-113.82,145a59.7,59.7,0,0,0-2.55,13.5c-.11,1.45-.16,2.91-.16,4.38a59.93,59.93,0,0,0,.6,8.54,59.33,59.33,0,0,0,3.43,13.14,59.6,59.6,0,0,0,5.6,10.93,59.78,59.78,0,0,0,7.18,9,59.71,59.71,0,0,0,8.94,7.62,59.53,59.53,0,0,0,11,6,59,59,0,0,0,14.34,4,60.63,60.63,0,0,0,8.9.66h.7A59.59,59.59,0,0,0-28.18,215.75Z" transform="translate(218.87 -74.86)"/><path class="cls-8" d="M-29,184.58a59.77,59.77,0,0,1-5.67,15.48,96.36,96.36,0,0,1,15.48,2.57,59.42,59.42,0,0,1-6.35,10,98,98,0,0,0-16.64-1.55,60.15,60.15,0,0,1-7.33,7.21,59.26,59.26,0,0,1-10.13-.93,61.8,61.8,0,0,0,5.21-5.63,95.39,95.39,0,0,0-15.1,3,60.57,60.57,0,0,1-13.09-6.64,97,97,0,0,1,35.79-8.28A60.15,60.15,0,0,0-41.78,184a97.19,97.19,0,0,0-50.95,15.54,60.78,60.78,0,0,1-7.37-9.44A97.3,97.3,0,0,1-43,171.73c.71,0,1.42,0,2.12,0a60.45,60.45,0,0,0-1.6-12.2c-1.52-.07-3.06-.11-4.6-.11a97.33,97.33,0,0,0-58.54,19.47,60,60,0,0,1-3.27-13.21,97.25,97.25,0,0,1,58.18-19.2c1.17,0,2.35,0,3.51.07a60.41,60.41,0,0,0-6.37-10.11h-1a97.26,97.26,0,0,0-54.69,16.72,60,60,0,0,1,2.39-12.79,97,97,0,0,1,43.68-13.71A60.75,60.75,0,0,0-75,119.13a97,97,0,0,0-25.25,6.79,60.71,60.71,0,0,1,5.42-7.39,59.66,59.66,0,0,1,10.59-3,61.54,61.54,0,0,1,10.93-1q2.92,0,5.77.27a59.92,59.92,0,0,1,17.11,4.19c-3-.37-6.11-.6-9.22-.69a60.37,60.37,0,0,1,12.11,8.5A97.93,97.93,0,0,1-34,129.07a60.84,60.84,0,0,1,11.23,12.68A96.39,96.39,0,0,0-38,137.87a59.27,59.27,0,0,1,5.64,10.36,97.43,97.43,0,0,1,15.26,4.22,60.36,60.36,0,0,1,3.64,12.94,97.2,97.2,0,0,0-15.07-4.17,60.68,60.68,0,0,1,.92,10.51c0,.4,0,.81,0,1.21a96.51,96.51,0,0,1,15,3.59,61.37,61.37,0,0,1-1.22,10.93A97.53,97.53,0,0,0-29,184.58Z" transform="translate(218.87 -74.86)"/></svg>